<?xml version="1.0" encoding="utf-8" standalone="no"?>
<!DOCTYPE svg PUBLIC "-//W3C//DTD SVG 1.1//EN"
  "http://www.w3.org/Graphics/SVG/1.1/DTD/svg11.dtd">
<!-- Created with matplotlib (https://matplotlib.org/) -->
<svg height="573.361874pt" version="1.1" viewBox="0 0 87.259 573.361874" width="87.259pt" xmlns="http://www.w3.org/2000/svg" xmlns:xlink="http://www.w3.org/1999/xlink">
 <metadata>
  <rdf:RDF xmlns:cc="http://creativecommons.org/ns#" xmlns:dc="http://purl.org/dc/elements/1.1/" xmlns:rdf="http://www.w3.org/1999/02/22-rdf-syntax-ns#">
   <cc:Work>
    <dc:type rdf:resource="http://purl.org/dc/dcmitype/StillImage"/>
    <dc:date>2022-02-04T10:24:47.153593</dc:date>
    <dc:format>image/svg+xml</dc:format>
    <dc:creator>
     <cc:Agent>
      <dc:title>Matplotlib v3.3.4, https://matplotlib.org/</dc:title>
     </cc:Agent>
    </dc:creator>
   </cc:Work>
  </rdf:RDF>
 </metadata>
 <defs>
  <style type="text/css">*{stroke-linecap:butt;stroke-linejoin:round;}</style>
 </defs>
 <g id="figure_1">
  <g id="patch_1">
   <path d="M 0 573.361874 
L 87.259 573.361874 
L 87.259 0 
L 0 0 
z
" style="fill:none;"/>
  </g>
  <g id="axes_1">
   <g id="patch_2">
    <path d="M 35.945 565.721671 
L 80.059 565.721671 
L 80.059 7.2 
L 35.945 7.2 
z
" style="fill:#d1d1d1;"/>
   </g>
   <g id="QuadMesh_1">
    <path clip-path="url(#pff7c9e4217)" d="M 35.945 7.2 
L 46.9735 7.2 
L 46.9735 16.666469 
L 35.945 16.666469 
L 35.945 7.2 
" style="fill:#f7f0e9;stroke:#ffffff;"/>
    <path clip-path="url(#pff7c9e4217)" d="M 46.9735 7.2 
L 58.002 7.2 
L 58.002 16.666469 
L 46.9735 16.666469 
L 46.9735 7.2 
" style="fill:#f6f5f8;stroke:#ffffff;"/>
    <path clip-path="url(#pff7c9e4217)" d="M 58.002 7.2 
L 69.0305 7.2 
L 69.0305 16.666469 
L 58.002 16.666469 
L 58.002 7.2 
" style="fill:#bbb2c4;stroke:#ffffff;"/>
    <path clip-path="url(#pff7c9e4217)" d="M 69.0305 7.2 
L 80.059 7.2 
L 80.059 16.666469 
L 69.0305 16.666469 
L 69.0305 7.2 
" style="fill:#eeecf0;stroke:#ffffff;"/>
    <path clip-path="url(#pff7c9e4217)" d="M 35.945 16.666469 
L 46.9735 16.666469 
L 46.9735 26.132938 
L 35.945 26.132938 
L 35.945 16.666469 
" style="fill:#dec0a1;stroke:#ffffff;"/>
    <path clip-path="url(#pff7c9e4217)" d="M 46.9735 16.666469 
L 58.002 16.666469 
L 58.002 26.132938 
L 46.9735 26.132938 
L 46.9735 16.666469 
" style="fill:#f6f5f8;stroke:#ffffff;"/>
    <path clip-path="url(#pff7c9e4217)" d="M 58.002 16.666469 
L 69.0305 16.666469 
L 69.0305 26.132938 
L 58.002 26.132938 
L 58.002 16.666469 
" style="fill:#f3f1f4;stroke:#ffffff;"/>
    <path clip-path="url(#pff7c9e4217)" d="M 69.0305 16.666469 
L 80.059 16.666469 
L 80.059 26.132938 
L 69.0305 26.132938 
L 69.0305 16.666469 
" style="fill:#f9f4ee;stroke:#ffffff;"/>
    <path clip-path="url(#pff7c9e4217)" d="M 35.945 26.132938 
L 46.9735 26.132938 
L 46.9735 35.599407 
L 35.945 35.599407 
L 35.945 26.132938 
" style="fill:#eedfcf;stroke:#ffffff;"/>
    <path clip-path="url(#pff7c9e4217)" d="M 46.9735 26.132938 
L 58.002 26.132938 
L 58.002 35.599407 
L 46.9735 35.599407 
L 46.9735 26.132938 
" style="fill:#e6d0b8;stroke:#ffffff;"/>
    <path clip-path="url(#pff7c9e4217)" d="M 58.002 26.132938 
L 69.0305 26.132938 
L 69.0305 35.599407 
L 58.002 35.599407 
L 58.002 26.132938 
" style="fill:#a396b0;stroke:#ffffff;"/>
    <path clip-path="url(#pff7c9e4217)" d="M 69.0305 26.132938 
L 80.059 26.132938 
L 80.059 35.599407 
L 69.0305 35.599407 
L 69.0305 26.132938 
" style="fill:#d4cdda;stroke:#ffffff;"/>
    <path clip-path="url(#pff7c9e4217)" d="M 35.945 35.599407 
L 46.9735 35.599407 
L 46.9735 45.065876 
L 35.945 45.065876 
L 35.945 35.599407 
" style="fill:#f3e8dd;stroke:#ffffff;"/>
    <path clip-path="url(#pff7c9e4217)" d="M 46.9735 35.599407 
L 58.002 35.599407 
L 58.002 45.065876 
L 46.9735 45.065876 
L 46.9735 35.599407 
" style="fill:#faf5f0;stroke:#ffffff;"/>
    <path clip-path="url(#pff7c9e4217)" d="M 58.002 35.599407 
L 69.0305 35.599407 
L 69.0305 45.065876 
L 58.002 45.065876 
L 58.002 35.599407 
" style="fill:#faf5f0;stroke:#ffffff;"/>
    <path clip-path="url(#pff7c9e4217)" d="M 69.0305 35.599407 
L 80.059 35.599407 
L 80.059 45.065876 
L 69.0305 45.065876 
L 69.0305 35.599407 
" style="fill:#fbf7f4;stroke:#ffffff;"/>
    <path clip-path="url(#pff7c9e4217)" d="M 35.945 45.065876 
L 46.9735 45.065876 
L 46.9735 54.532345 
L 35.945 54.532345 
L 35.945 45.065876 
" style="fill:#ded9e2;stroke:#ffffff;"/>
    <path clip-path="url(#pff7c9e4217)" d="M 46.9735 45.065876 
L 58.002 45.065876 
L 58.002 54.532345 
L 46.9735 54.532345 
L 46.9735 45.065876 
" style="fill:#f2f0f3;stroke:#ffffff;"/>
    <path clip-path="url(#pff7c9e4217)" d="M 58.002 45.065876 
L 69.0305 45.065876 
L 69.0305 54.532345 
L 58.002 54.532345 
L 58.002 45.065876 
" style="fill:#cda172;stroke:#ffffff;"/>
    <path clip-path="url(#pff7c9e4217)" d="M 69.0305 45.065876 
L 80.059 45.065876 
L 80.059 54.532345 
L 69.0305 54.532345 
L 69.0305 45.065876 
" style="fill:#b16d25;stroke:#ffffff;"/>
    <path clip-path="url(#pff7c9e4217)" d="M 35.945 54.532345 
L 46.9735 54.532345 
L 46.9735 63.998814 
L 35.945 63.998814 
L 35.945 54.532345 
" style="fill:#f2e6d9;stroke:#ffffff;"/>
    <path clip-path="url(#pff7c9e4217)" d="M 46.9735 54.532345 
L 58.002 54.532345 
L 58.002 63.998814 
L 46.9735 63.998814 
L 46.9735 54.532345 
" style="fill:#dcbe9e;stroke:#ffffff;"/>
    <path clip-path="url(#pff7c9e4217)" d="M 58.002 54.532345 
L 69.0305 54.532345 
L 69.0305 63.998814 
L 58.002 63.998814 
L 58.002 54.532345 
" style="fill:#9889a6;stroke:#ffffff;"/>
    <path clip-path="url(#pff7c9e4217)" d="M 69.0305 54.532345 
L 80.059 54.532345 
L 80.059 63.998814 
L 69.0305 63.998814 
L 69.0305 54.532345 
" style="fill:#f9f4ee;stroke:#ffffff;"/>
    <path clip-path="url(#pff7c9e4217)" d="M 35.945 63.998814 
L 46.9735 63.998814 
L 46.9735 73.465283 
L 35.945 73.465283 
L 35.945 63.998814 
" style="fill:#dfc4a7;stroke:#ffffff;"/>
    <path clip-path="url(#pff7c9e4217)" d="M 46.9735 63.998814 
L 58.002 63.998814 
L 58.002 73.465283 
L 46.9735 73.465283 
L 46.9735 63.998814 
" style="fill:#e4cdb5;stroke:#ffffff;"/>
    <path clip-path="url(#pff7c9e4217)" d="M 58.002 63.998814 
L 69.0305 63.998814 
L 69.0305 73.465283 
L 58.002 73.465283 
L 58.002 63.998814 
" style="fill:#d6d0dc;stroke:#ffffff;"/>
    <path clip-path="url(#pff7c9e4217)" d="M 69.0305 63.998814 
L 80.059 63.998814 
L 80.059 73.465283 
L 69.0305 73.465283 
L 69.0305 63.998814 
" style="fill:#e6e3ea;stroke:#ffffff;"/>
    <path clip-path="url(#pff7c9e4217)" d="M 35.945 73.465283 
L 46.9735 73.465283 
L 46.9735 82.931752 
L 35.945 82.931752 
L 35.945 73.465283 
" style="fill:#f4eae0;stroke:#ffffff;"/>
    <path clip-path="url(#pff7c9e4217)" d="M 46.9735 73.465283 
L 58.002 73.465283 
L 58.002 82.931752 
L 46.9735 82.931752 
L 46.9735 73.465283 
" style="fill:#cea376;stroke:#ffffff;"/>
    <path clip-path="url(#pff7c9e4217)" d="M 58.002 73.465283 
L 69.0305 73.465283 
L 69.0305 82.931752 
L 58.002 82.931752 
L 58.002 73.465283 
" style="fill:#9e91ac;stroke:#ffffff;"/>
    <path clip-path="url(#pff7c9e4217)" d="M 69.0305 73.465283 
L 80.059 73.465283 
L 80.059 82.931752 
L 69.0305 82.931752 
L 69.0305 73.465283 
" style="fill:#f4f2f6;stroke:#ffffff;"/>
    <path clip-path="url(#pff7c9e4217)" d="M 35.945 82.931752 
L 46.9735 82.931752 
L 46.9735 92.398221 
L 35.945 92.398221 
L 35.945 82.931752 
" style="fill:#e7d2bc;stroke:#ffffff;"/>
    <path clip-path="url(#pff7c9e4217)" d="M 46.9735 82.931752 
L 58.002 82.931752 
L 58.002 92.398221 
L 46.9735 92.398221 
L 46.9735 82.931752 
" style="fill:#f9f4ee;stroke:#ffffff;"/>
    <path clip-path="url(#pff7c9e4217)" d="M 58.002 82.931752 
L 69.0305 82.931752 
L 69.0305 92.398221 
L 58.002 92.398221 
L 58.002 82.931752 
" style="fill:#ddd8e2;stroke:#ffffff;"/>
    <path clip-path="url(#pff7c9e4217)" d="M 69.0305 82.931752 
L 80.059 82.931752 
L 80.059 92.398221 
L 69.0305 92.398221 
L 69.0305 82.931752 
" style="fill:#d2ccd8;stroke:#ffffff;"/>
    <path clip-path="url(#pff7c9e4217)" d="M 35.945 92.398221 
L 46.9735 92.398221 
L 46.9735 101.86469 
L 35.945 101.86469 
L 35.945 92.398221 
" style="fill:#f9f8fa;stroke:#ffffff;"/>
    <path clip-path="url(#pff7c9e4217)" d="M 46.9735 92.398221 
L 58.002 92.398221 
L 58.002 101.86469 
L 46.9735 101.86469 
L 46.9735 92.398221 
" style="fill:#ddbfa0;stroke:#ffffff;"/>
    <path clip-path="url(#pff7c9e4217)" d="M 58.002 92.398221 
L 69.0305 92.398221 
L 69.0305 101.86469 
L 58.002 101.86469 
L 58.002 92.398221 
" style="fill:#ebe8ee;stroke:#ffffff;"/>
    <path clip-path="url(#pff7c9e4217)" d="M 69.0305 92.398221 
L 80.059 92.398221 
L 80.059 101.86469 
L 69.0305 101.86469 
L 69.0305 92.398221 
" style="fill:#ebdac8;stroke:#ffffff;"/>
    <path clip-path="url(#pff7c9e4217)" d="M 35.945 101.86469 
L 46.9735 101.86469 
L 46.9735 111.331159 
L 35.945 111.331159 
L 35.945 101.86469 
" style="fill:#e8d4bf;stroke:#ffffff;"/>
    <path clip-path="url(#pff7c9e4217)" d="M 46.9735 101.86469 
L 58.002 101.86469 
L 58.002 111.331159 
L 46.9735 111.331159 
L 46.9735 101.86469 
" style="fill:#f7f0e9;stroke:#ffffff;"/>
    <path clip-path="url(#pff7c9e4217)" d="M 58.002 101.86469 
L 69.0305 101.86469 
L 69.0305 111.331159 
L 58.002 111.331159 
L 58.002 101.86469 
" style="fill:#f9f8fa;stroke:#ffffff;"/>
    <path clip-path="url(#pff7c9e4217)" d="M 69.0305 101.86469 
L 80.059 101.86469 
L 80.059 111.331159 
L 69.0305 111.331159 
L 69.0305 101.86469 
" style="fill:#f7f6f8;stroke:#ffffff;"/>
    <path clip-path="url(#pff7c9e4217)" d="M 35.945 111.331159 
L 46.9735 111.331159 
L 46.9735 120.797628 
L 35.945 120.797628 
L 35.945 111.331159 
" style="fill:#daba99;stroke:#ffffff;"/>
    <path clip-path="url(#pff7c9e4217)" d="M 46.9735 111.331159 
L 58.002 111.331159 
L 58.002 120.797628 
L 46.9735 120.797628 
L 46.9735 111.331159 
" style="fill:#efe1d2;stroke:#ffffff;"/>
    <path clip-path="url(#pff7c9e4217)" d="M 58.002 111.331159 
L 69.0305 111.331159 
L 69.0305 120.797628 
L 58.002 120.797628 
L 58.002 111.331159 
" style="fill:#f1eef2;stroke:#ffffff;"/>
    <path clip-path="url(#pff7c9e4217)" d="M 69.0305 111.331159 
L 80.059 111.331159 
L 80.059 120.797628 
L 69.0305 120.797628 
L 69.0305 111.331159 
" style="fill:#d8d3de;stroke:#ffffff;"/>
    <path clip-path="url(#pff7c9e4217)" d="M 35.945 120.797628 
L 46.9735 120.797628 
L 46.9735 130.264097 
L 35.945 130.264097 
L 35.945 120.797628 
" style="fill:#f2f0f3;stroke:#ffffff;"/>
    <path clip-path="url(#pff7c9e4217)" d="M 46.9735 120.797628 
L 58.002 120.797628 
L 58.002 130.264097 
L 46.9735 130.264097 
L 46.9735 120.797628 
" style="fill:#f5ece2;stroke:#ffffff;"/>
    <path clip-path="url(#pff7c9e4217)" d="M 58.002 120.797628 
L 69.0305 120.797628 
L 69.0305 130.264097 
L 58.002 130.264097 
L 58.002 120.797628 
" style="fill:#dbd5e0;stroke:#ffffff;"/>
    <path clip-path="url(#pff7c9e4217)" d="M 69.0305 120.797628 
L 80.059 120.797628 
L 80.059 130.264097 
L 69.0305 130.264097 
L 69.0305 120.797628 
" style="fill:#fdfdfe;stroke:#ffffff;"/>
    <path clip-path="url(#pff7c9e4217)" d="M 35.945 130.264097 
L 46.9735 130.264097 
L 46.9735 139.730566 
L 35.945 139.730566 
L 35.945 130.264097 
" style="fill:#ebd9c6;stroke:#ffffff;"/>
    <path clip-path="url(#pff7c9e4217)" d="M 46.9735 130.264097 
L 58.002 130.264097 
L 58.002 139.730566 
L 46.9735 139.730566 
L 46.9735 130.264097 
" style="fill:#e8d4bf;stroke:#ffffff;"/>
    <path clip-path="url(#pff7c9e4217)" d="M 58.002 130.264097 
L 69.0305 130.264097 
L 69.0305 139.730566 
L 58.002 139.730566 
L 58.002 130.264097 
" style="fill:#f9f4ee;stroke:#ffffff;"/>
    <path clip-path="url(#pff7c9e4217)" d="M 69.0305 130.264097 
L 80.059 130.264097 
L 80.059 139.730566 
L 69.0305 139.730566 
L 69.0305 130.264097 
" style="fill:#fcf9f5;stroke:#ffffff;"/>
    <path clip-path="url(#pff7c9e4217)" d="M 35.945 139.730566 
L 46.9735 139.730566 
L 46.9735 149.197035 
L 35.945 149.197035 
L 35.945 139.730566 
" style="fill:#f5f4f6;stroke:#ffffff;"/>
    <path clip-path="url(#pff7c9e4217)" d="M 46.9735 139.730566 
L 58.002 139.730566 
L 58.002 149.197035 
L 46.9735 149.197035 
L 46.9735 139.730566 
" style="fill:#faf5f0;stroke:#ffffff;"/>
    <path clip-path="url(#pff7c9e4217)" d="M 58.002 139.730566 
L 69.0305 139.730566 
L 69.0305 149.197035 
L 58.002 149.197035 
L 58.002 139.730566 
" style="fill:#fcfaf7;stroke:#ffffff;"/>
    <path clip-path="url(#pff7c9e4217)" d="M 69.0305 139.730566 
L 80.059 139.730566 
L 80.059 149.197035 
L 69.0305 149.197035 
L 69.0305 139.730566 
" style="fill:#e4e0e8;stroke:#ffffff;"/>
    <path clip-path="url(#pff7c9e4217)" d="M 35.945 149.197035 
L 46.9735 149.197035 
L 46.9735 158.663504 
L 35.945 158.663504 
L 35.945 149.197035 
" style="fill:#efe1d2;stroke:#ffffff;"/>
    <path clip-path="url(#pff7c9e4217)" d="M 46.9735 149.197035 
L 58.002 149.197035 
L 58.002 158.663504 
L 46.9735 158.663504 
L 46.9735 149.197035 
" style="fill:#f0e3d6;stroke:#ffffff;"/>
    <path clip-path="url(#pff7c9e4217)" d="M 58.002 149.197035 
L 69.0305 149.197035 
L 69.0305 158.663504 
L 58.002 158.663504 
L 58.002 149.197035 
" style="fill:#e5e1e8;stroke:#ffffff;"/>
    <path clip-path="url(#pff7c9e4217)" d="M 69.0305 149.197035 
L 80.059 149.197035 
L 80.059 158.663504 
L 69.0305 158.663504 
L 69.0305 149.197035 
" style="fill:#fefefe;stroke:#ffffff;"/>
    <path clip-path="url(#pff7c9e4217)" d="M 35.945 158.663504 
L 46.9735 158.663504 
L 46.9735 168.129973 
L 35.945 168.129973 
L 35.945 158.663504 
" style="fill:none;stroke:#ffffff;"/>
    <path clip-path="url(#pff7c9e4217)" d="M 46.9735 158.663504 
L 58.002 158.663504 
L 58.002 168.129973 
L 46.9735 168.129973 
L 46.9735 158.663504 
" style="fill:#f2e6d9;stroke:#ffffff;"/>
    <path clip-path="url(#pff7c9e4217)" d="M 58.002 158.663504 
L 69.0305 158.663504 
L 69.0305 168.129973 
L 58.002 168.129973 
L 58.002 158.663504 
" style="fill:#9181a0;stroke:#ffffff;"/>
    <path clip-path="url(#pff7c9e4217)" d="M 69.0305 158.663504 
L 80.059 158.663504 
L 80.059 168.129973 
L 69.0305 168.129973 
L 69.0305 158.663504 
" style="fill:#f9f4ee;stroke:#ffffff;"/>
    <path clip-path="url(#pff7c9e4217)" d="M 35.945 168.129973 
L 46.9735 168.129973 
L 46.9735 177.596442 
L 35.945 177.596442 
L 35.945 168.129973 
" style="fill:#ebe8ee;stroke:#ffffff;"/>
    <path clip-path="url(#pff7c9e4217)" d="M 46.9735 168.129973 
L 58.002 168.129973 
L 58.002 177.596442 
L 46.9735 177.596442 
L 46.9735 168.129973 
" style="fill:#fbf7f4;stroke:#ffffff;"/>
    <path clip-path="url(#pff7c9e4217)" d="M 58.002 168.129973 
L 69.0305 168.129973 
L 69.0305 177.596442 
L 58.002 177.596442 
L 58.002 168.129973 
" style="fill:#faf6f2;stroke:#ffffff;"/>
    <path clip-path="url(#pff7c9e4217)" d="M 69.0305 168.129973 
L 80.059 168.129973 
L 80.059 177.596442 
L 69.0305 177.596442 
L 69.0305 168.129973 
" style="fill:#f4eae0;stroke:#ffffff;"/>
    <path clip-path="url(#pff7c9e4217)" d="M 35.945 177.596442 
L 46.9735 177.596442 
L 46.9735 187.062911 
L 35.945 187.062911 
L 35.945 177.596442 
" style="fill:#f6eee6;stroke:#ffffff;"/>
    <path clip-path="url(#pff7c9e4217)" d="M 46.9735 177.596442 
L 58.002 177.596442 
L 58.002 187.062911 
L 46.9735 187.062911 
L 46.9735 177.596442 
" style="fill:#eae7ec;stroke:#ffffff;"/>
    <path clip-path="url(#pff7c9e4217)" d="M 58.002 177.596442 
L 69.0305 177.596442 
L 69.0305 187.062911 
L 58.002 187.062911 
L 58.002 177.596442 
" style="fill:#7f6d90;stroke:#ffffff;"/>
    <path clip-path="url(#pff7c9e4217)" d="M 69.0305 177.596442 
L 80.059 177.596442 
L 80.059 187.062911 
L 69.0305 187.062911 
L 69.0305 177.596442 
" style="fill:#c8c0d0;stroke:#ffffff;"/>
    <path clip-path="url(#pff7c9e4217)" d="M 35.945 187.062911 
L 46.9735 187.062911 
L 46.9735 196.52938 
L 35.945 196.52938 
L 35.945 187.062911 
" style="fill:none;stroke:#ffffff;"/>
    <path clip-path="url(#pff7c9e4217)" d="M 46.9735 187.062911 
L 58.002 187.062911 
L 58.002 196.52938 
L 46.9735 196.52938 
L 46.9735 187.062911 
" style="fill:#ece9ee;stroke:#ffffff;"/>
    <path clip-path="url(#pff7c9e4217)" d="M 58.002 187.062911 
L 69.0305 187.062911 
L 69.0305 196.52938 
L 58.002 196.52938 
L 58.002 187.062911 
" style="fill:#f5f4f6;stroke:#ffffff;"/>
    <path clip-path="url(#pff7c9e4217)" d="M 69.0305 187.062911 
L 80.059 187.062911 
L 80.059 196.52938 
L 69.0305 196.52938 
L 69.0305 187.062911 
" style="fill:#e8e5ec;stroke:#ffffff;"/>
    <path clip-path="url(#pff7c9e4217)" d="M 35.945 196.52938 
L 46.9735 196.52938 
L 46.9735 205.995849 
L 35.945 205.995849 
L 35.945 196.52938 
" style="fill:#f7f0e9;stroke:#ffffff;"/>
    <path clip-path="url(#pff7c9e4217)" d="M 46.9735 196.52938 
L 58.002 196.52938 
L 58.002 205.995849 
L 46.9735 205.995849 
L 46.9735 196.52938 
" style="fill:#faf6f2;stroke:#ffffff;"/>
    <path clip-path="url(#pff7c9e4217)" d="M 58.002 196.52938 
L 69.0305 196.52938 
L 69.0305 205.995849 
L 58.002 205.995849 
L 58.002 196.52938 
" style="fill:#dab997;stroke:#ffffff;"/>
    <path clip-path="url(#pff7c9e4217)" d="M 69.0305 196.52938 
L 80.059 196.52938 
L 80.059 205.995849 
L 69.0305 205.995849 
L 69.0305 196.52938 
" style="fill:#d4af87;stroke:#ffffff;"/>
    <path clip-path="url(#pff7c9e4217)" d="M 35.945 205.995849 
L 46.9735 205.995849 
L 46.9735 215.462318 
L 35.945 215.462318 
L 35.945 205.995849 
" style="fill:#f3f1f4;stroke:#ffffff;"/>
    <path clip-path="url(#pff7c9e4217)" d="M 46.9735 205.995849 
L 58.002 205.995849 
L 58.002 215.462318 
L 46.9735 215.462318 
L 46.9735 205.995849 
" style="fill:#faf6f2;stroke:#ffffff;"/>
    <path clip-path="url(#pff7c9e4217)" d="M 58.002 205.995849 
L 69.0305 205.995849 
L 69.0305 215.462318 
L 58.002 215.462318 
L 58.002 205.995849 
" style="fill:#cdc6d3;stroke:#ffffff;"/>
    <path clip-path="url(#pff7c9e4217)" d="M 69.0305 205.995849 
L 80.059 205.995849 
L 80.059 215.462318 
L 69.0305 215.462318 
L 69.0305 205.995849 
" style="fill:#d8d3de;stroke:#ffffff;"/>
    <path clip-path="url(#pff7c9e4217)" d="M 35.945 215.462318 
L 46.9735 215.462318 
L 46.9735 224.928787 
L 35.945 224.928787 
L 35.945 215.462318 
" style="fill:#f4eae0;stroke:#ffffff;"/>
    <path clip-path="url(#pff7c9e4217)" d="M 46.9735 215.462318 
L 58.002 215.462318 
L 58.002 224.928787 
L 46.9735 224.928787 
L 46.9735 215.462318 
" style="fill:#ece9ee;stroke:#ffffff;"/>
    <path clip-path="url(#pff7c9e4217)" d="M 58.002 215.462318 
L 69.0305 215.462318 
L 69.0305 224.928787 
L 58.002 224.928787 
L 58.002 215.462318 
" style="fill:#735f86;stroke:#ffffff;"/>
    <path clip-path="url(#pff7c9e4217)" d="M 69.0305 215.462318 
L 80.059 215.462318 
L 80.059 224.928787 
L 69.0305 224.928787 
L 69.0305 215.462318 
" style="fill:#aca1b8;stroke:#ffffff;"/>
    <path clip-path="url(#pff7c9e4217)" d="M 35.945 224.928787 
L 46.9735 224.928787 
L 46.9735 234.395256 
L 35.945 234.395256 
L 35.945 224.928787 
" style="fill:#fbf7f4;stroke:#ffffff;"/>
    <path clip-path="url(#pff7c9e4217)" d="M 46.9735 224.928787 
L 58.002 224.928787 
L 58.002 234.395256 
L 46.9735 234.395256 
L 46.9735 224.928787 
" style="fill:#e0dce4;stroke:#ffffff;"/>
    <path clip-path="url(#pff7c9e4217)" d="M 58.002 224.928787 
L 69.0305 224.928787 
L 69.0305 234.395256 
L 58.002 234.395256 
L 58.002 224.928787 
" style="fill:#c6bece;stroke:#ffffff;"/>
    <path clip-path="url(#pff7c9e4217)" d="M 69.0305 224.928787 
L 80.059 224.928787 
L 80.059 234.395256 
L 69.0305 234.395256 
L 69.0305 224.928787 
" style="fill:#f1eef2;stroke:#ffffff;"/>
    <path clip-path="url(#pff7c9e4217)" d="M 35.945 234.395256 
L 46.9735 234.395256 
L 46.9735 243.861725 
L 35.945 243.861725 
L 35.945 234.395256 
" style="fill:#dbbc9a;stroke:#ffffff;"/>
    <path clip-path="url(#pff7c9e4217)" d="M 46.9735 234.395256 
L 58.002 234.395256 
L 58.002 243.861725 
L 46.9735 243.861725 
L 46.9735 234.395256 
" style="fill:#e7e4eb;stroke:#ffffff;"/>
    <path clip-path="url(#pff7c9e4217)" d="M 58.002 234.395256 
L 69.0305 234.395256 
L 69.0305 243.861725 
L 58.002 243.861725 
L 58.002 234.395256 
" style="fill:#dbd5e0;stroke:#ffffff;"/>
    <path clip-path="url(#pff7c9e4217)" d="M 69.0305 234.395256 
L 80.059 234.395256 
L 80.059 243.861725 
L 69.0305 243.861725 
L 69.0305 234.395256 
" style="fill:#d6d0dc;stroke:#ffffff;"/>
    <path clip-path="url(#pff7c9e4217)" d="M 35.945 243.861725 
L 46.9735 243.861725 
L 46.9735 253.328194 
L 35.945 253.328194 
L 35.945 243.861725 
" style="fill:#f9f8fa;stroke:#ffffff;"/>
    <path clip-path="url(#pff7c9e4217)" d="M 46.9735 243.861725 
L 58.002 243.861725 
L 58.002 253.328194 
L 46.9735 253.328194 
L 46.9735 243.861725 
" style="fill:#fbfafc;stroke:#ffffff;"/>
    <path clip-path="url(#pff7c9e4217)" d="M 58.002 243.861725 
L 69.0305 243.861725 
L 69.0305 253.328194 
L 58.002 253.328194 
L 58.002 243.861725 
" style="fill:#aa9eb6;stroke:#ffffff;"/>
    <path clip-path="url(#pff7c9e4217)" d="M 69.0305 243.861725 
L 80.059 243.861725 
L 80.059 253.328194 
L 69.0305 253.328194 
L 69.0305 243.861725 
" style="fill:#afa3ba;stroke:#ffffff;"/>
    <path clip-path="url(#pff7c9e4217)" d="M 35.945 253.328194 
L 46.9735 253.328194 
L 46.9735 262.794663 
L 35.945 262.794663 
L 35.945 253.328194 
" style="fill:none;stroke:#ffffff;"/>
    <path clip-path="url(#pff7c9e4217)" d="M 46.9735 253.328194 
L 58.002 253.328194 
L 58.002 262.794663 
L 46.9735 262.794663 
L 46.9735 253.328194 
" style="fill:#e9d5c1;stroke:#ffffff;"/>
    <path clip-path="url(#pff7c9e4217)" d="M 58.002 253.328194 
L 69.0305 253.328194 
L 69.0305 262.794663 
L 58.002 262.794663 
L 58.002 253.328194 
" style="fill:#4d3e5b;stroke:#ffffff;"/>
    <path clip-path="url(#pff7c9e4217)" d="M 69.0305 253.328194 
L 80.059 253.328194 
L 80.059 262.794663 
L 69.0305 262.794663 
L 69.0305 253.328194 
" style="fill:#e3dfe6;stroke:#ffffff;"/>
    <path clip-path="url(#pff7c9e4217)" d="M 35.945 262.794663 
L 46.9735 262.794663 
L 46.9735 272.261132 
L 35.945 272.261132 
L 35.945 262.794663 
" style="fill:#e6d0b8;stroke:#ffffff;"/>
    <path clip-path="url(#pff7c9e4217)" d="M 46.9735 262.794663 
L 58.002 262.794663 
L 58.002 272.261132 
L 46.9735 272.261132 
L 46.9735 262.794663 
" style="fill:#fdfbf9;stroke:#ffffff;"/>
    <path clip-path="url(#pff7c9e4217)" d="M 58.002 262.794663 
L 69.0305 262.794663 
L 69.0305 272.261132 
L 58.002 272.261132 
L 58.002 262.794663 
" style="fill:#fbf7f4;stroke:#ffffff;"/>
    <path clip-path="url(#pff7c9e4217)" d="M 69.0305 262.794663 
L 80.059 262.794663 
L 80.059 272.261132 
L 69.0305 272.261132 
L 69.0305 262.794663 
" style="fill:#e1c6aa;stroke:#ffffff;"/>
    <path clip-path="url(#pff7c9e4217)" d="M 35.945 272.261132 
L 46.9735 272.261132 
L 46.9735 281.727601 
L 35.945 281.727601 
L 35.945 272.261132 
" style="fill:#dfc4a7;stroke:#ffffff;"/>
    <path clip-path="url(#pff7c9e4217)" d="M 46.9735 272.261132 
L 58.002 272.261132 
L 58.002 281.727601 
L 46.9735 281.727601 
L 46.9735 272.261132 
" style="fill:#e8e5ec;stroke:#ffffff;"/>
    <path clip-path="url(#pff7c9e4217)" d="M 58.002 272.261132 
L 69.0305 272.261132 
L 69.0305 281.727601 
L 58.002 281.727601 
L 58.002 272.261132 
" style="fill:#c8c0d0;stroke:#ffffff;"/>
    <path clip-path="url(#pff7c9e4217)" d="M 69.0305 272.261132 
L 80.059 272.261132 
L 80.059 281.727601 
L 69.0305 281.727601 
L 69.0305 272.261132 
" style="fill:#b3a9be;stroke:#ffffff;"/>
    <path clip-path="url(#pff7c9e4217)" d="M 35.945 281.727601 
L 46.9735 281.727601 
L 46.9735 291.19407 
L 35.945 291.19407 
L 35.945 281.727601 
" style="fill:#faf5f0;stroke:#ffffff;"/>
    <path clip-path="url(#pff7c9e4217)" d="M 46.9735 281.727601 
L 58.002 281.727601 
L 58.002 291.19407 
L 46.9735 291.19407 
L 46.9735 281.727601 
" style="fill:#fffefe;stroke:#ffffff;"/>
    <path clip-path="url(#pff7c9e4217)" d="M 58.002 281.727601 
L 69.0305 281.727601 
L 69.0305 291.19407 
L 58.002 291.19407 
L 58.002 281.727601 
" style="fill:#f3f1f4;stroke:#ffffff;"/>
    <path clip-path="url(#pff7c9e4217)" d="M 69.0305 281.727601 
L 80.059 281.727601 
L 80.059 291.19407 
L 69.0305 291.19407 
L 69.0305 281.727601 
" style="fill:#f7f6f8;stroke:#ffffff;"/>
    <path clip-path="url(#pff7c9e4217)" d="M 35.945 291.19407 
L 46.9735 291.19407 
L 46.9735 300.660539 
L 35.945 300.660539 
L 35.945 291.19407 
" style="fill:none;stroke:#ffffff;"/>
    <path clip-path="url(#pff7c9e4217)" d="M 46.9735 291.19407 
L 58.002 291.19407 
L 58.002 300.660539 
L 46.9735 300.660539 
L 46.9735 291.19407 
" style="fill:#d1cbd8;stroke:#ffffff;"/>
    <path clip-path="url(#pff7c9e4217)" d="M 58.002 291.19407 
L 69.0305 291.19407 
L 69.0305 300.660539 
L 58.002 300.660539 
L 58.002 291.19407 
" style="fill:#d7d1dc;stroke:#ffffff;"/>
    <path clip-path="url(#pff7c9e4217)" d="M 69.0305 291.19407 
L 80.059 291.19407 
L 80.059 300.660539 
L 69.0305 300.660539 
L 69.0305 291.19407 
" style="fill:#fbfafc;stroke:#ffffff;"/>
    <path clip-path="url(#pff7c9e4217)" d="M 35.945 300.660539 
L 46.9735 300.660539 
L 46.9735 310.127008 
L 35.945 310.127008 
L 35.945 300.660539 
" style="fill:none;stroke:#ffffff;"/>
    <path clip-path="url(#pff7c9e4217)" d="M 46.9735 300.660539 
L 58.002 300.660539 
L 58.002 310.127008 
L 46.9735 310.127008 
L 46.9735 300.660539 
" style="fill:#f5ece2;stroke:#ffffff;"/>
    <path clip-path="url(#pff7c9e4217)" d="M 58.002 300.660539 
L 69.0305 300.660539 
L 69.0305 310.127008 
L 58.002 310.127008 
L 58.002 300.660539 
" style="fill:#ebe8ee;stroke:#ffffff;"/>
    <path clip-path="url(#pff7c9e4217)" d="M 69.0305 300.660539 
L 80.059 300.660539 
L 80.059 310.127008 
L 69.0305 310.127008 
L 69.0305 300.660539 
" style="fill:#faf5f0;stroke:#ffffff;"/>
    <path clip-path="url(#pff7c9e4217)" d="M 35.945 310.127008 
L 46.9735 310.127008 
L 46.9735 319.593477 
L 35.945 319.593477 
L 35.945 310.127008 
" style="fill:#d5b089;stroke:#ffffff;"/>
    <path clip-path="url(#pff7c9e4217)" d="M 46.9735 310.127008 
L 58.002 310.127008 
L 58.002 319.593477 
L 46.9735 319.593477 
L 46.9735 310.127008 
" style="fill:#f4eae0;stroke:#ffffff;"/>
    <path clip-path="url(#pff7c9e4217)" d="M 58.002 310.127008 
L 69.0305 310.127008 
L 69.0305 319.593477 
L 58.002 319.593477 
L 58.002 310.127008 
" style="fill:#8a799a;stroke:#ffffff;"/>
    <path clip-path="url(#pff7c9e4217)" d="M 69.0305 310.127008 
L 80.059 310.127008 
L 80.059 319.593477 
L 69.0305 319.593477 
L 69.0305 310.127008 
" style="fill:#998aa6;stroke:#ffffff;"/>
    <path clip-path="url(#pff7c9e4217)" d="M 35.945 319.593477 
L 46.9735 319.593477 
L 46.9735 329.059946 
L 35.945 329.059946 
L 35.945 319.593477 
" style="fill:#fefdfc;stroke:#ffffff;"/>
    <path clip-path="url(#pff7c9e4217)" d="M 46.9735 319.593477 
L 58.002 319.593477 
L 58.002 329.059946 
L 46.9735 329.059946 
L 46.9735 319.593477 
" style="fill:#b8aec2;stroke:#ffffff;"/>
    <path clip-path="url(#pff7c9e4217)" d="M 58.002 319.593477 
L 69.0305 319.593477 
L 69.0305 329.059946 
L 58.002 329.059946 
L 58.002 319.593477 
" style="fill:#7b688c;stroke:#ffffff;"/>
    <path clip-path="url(#pff7c9e4217)" d="M 69.0305 319.593477 
L 80.059 319.593477 
L 80.059 329.059946 
L 69.0305 329.059946 
L 69.0305 319.593477 
" style="fill:#b8aec2;stroke:#ffffff;"/>
    <path clip-path="url(#pff7c9e4217)" d="M 35.945 329.059946 
L 46.9735 329.059946 
L 46.9735 338.526415 
L 35.945 338.526415 
L 35.945 329.059946 
" style="fill:#daba99;stroke:#ffffff;"/>
    <path clip-path="url(#pff7c9e4217)" d="M 46.9735 329.059946 
L 58.002 329.059946 
L 58.002 338.526415 
L 46.9735 338.526415 
L 46.9735 329.059946 
" style="fill:#e3dfe6;stroke:#ffffff;"/>
    <path clip-path="url(#pff7c9e4217)" d="M 58.002 329.059946 
L 69.0305 329.059946 
L 69.0305 338.526415 
L 58.002 338.526415 
L 58.002 329.059946 
" style="fill:#7f6d90;stroke:#ffffff;"/>
    <path clip-path="url(#pff7c9e4217)" d="M 69.0305 329.059946 
L 80.059 329.059946 
L 80.059 338.526415 
L 69.0305 338.526415 
L 69.0305 329.059946 
" style="fill:#9586a3;stroke:#ffffff;"/>
    <path clip-path="url(#pff7c9e4217)" d="M 35.945 338.526415 
L 46.9735 338.526415 
L 46.9735 347.992884 
L 35.945 347.992884 
L 35.945 338.526415 
" style="fill:#eeecf0;stroke:#ffffff;"/>
    <path clip-path="url(#pff7c9e4217)" d="M 46.9735 338.526415 
L 58.002 338.526415 
L 58.002 347.992884 
L 46.9735 347.992884 
L 46.9735 338.526415 
" style="fill:#d7d1dc;stroke:#ffffff;"/>
    <path clip-path="url(#pff7c9e4217)" d="M 58.002 338.526415 
L 69.0305 338.526415 
L 69.0305 347.992884 
L 58.002 347.992884 
L 58.002 338.526415 
" style="fill:#8a799a;stroke:#ffffff;"/>
    <path clip-path="url(#pff7c9e4217)" d="M 69.0305 338.526415 
L 80.059 338.526415 
L 80.059 347.992884 
L 69.0305 347.992884 
L 69.0305 338.526415 
" style="fill:#715d84;stroke:#ffffff;"/>
    <path clip-path="url(#pff7c9e4217)" d="M 35.945 347.992884 
L 46.9735 347.992884 
L 46.9735 357.459353 
L 35.945 357.459353 
L 35.945 347.992884 
" style="fill:none;stroke:#ffffff;"/>
    <path clip-path="url(#pff7c9e4217)" d="M 46.9735 347.992884 
L 58.002 347.992884 
L 58.002 357.459353 
L 46.9735 357.459353 
L 46.9735 347.992884 
" style="fill:#e5e1e8;stroke:#ffffff;"/>
    <path clip-path="url(#pff7c9e4217)" d="M 58.002 347.992884 
L 69.0305 347.992884 
L 69.0305 357.459353 
L 58.002 357.459353 
L 58.002 347.992884 
" style="fill:#9e91ac;stroke:#ffffff;"/>
    <path clip-path="url(#pff7c9e4217)" d="M 69.0305 347.992884 
L 80.059 347.992884 
L 80.059 357.459353 
L 69.0305 357.459353 
L 69.0305 347.992884 
" style="fill:#a396b0;stroke:#ffffff;"/>
    <path clip-path="url(#pff7c9e4217)" d="M 35.945 357.459353 
L 46.9735 357.459353 
L 46.9735 366.925822 
L 35.945 366.925822 
L 35.945 357.459353 
" style="fill:none;stroke:#ffffff;"/>
    <path clip-path="url(#pff7c9e4217)" d="M 46.9735 357.459353 
L 58.002 357.459353 
L 58.002 366.925822 
L 46.9735 366.925822 
L 46.9735 357.459353 
" style="fill:#ded9e2;stroke:#ffffff;"/>
    <path clip-path="url(#pff7c9e4217)" d="M 58.002 357.459353 
L 69.0305 357.459353 
L 69.0305 366.925822 
L 58.002 366.925822 
L 58.002 357.459353 
" style="fill:#d4cdda;stroke:#ffffff;"/>
    <path clip-path="url(#pff7c9e4217)" d="M 69.0305 357.459353 
L 80.059 357.459353 
L 80.059 366.925822 
L 69.0305 366.925822 
L 69.0305 357.459353 
" style="fill:#f7f6f8;stroke:#ffffff;"/>
    <path clip-path="url(#pff7c9e4217)" d="M 35.945 366.925822 
L 46.9735 366.925822 
L 46.9735 376.392291 
L 35.945 376.392291 
L 35.945 366.925822 
" style="fill:#d9b895;stroke:#ffffff;"/>
    <path clip-path="url(#pff7c9e4217)" d="M 46.9735 366.925822 
L 58.002 366.925822 
L 58.002 376.392291 
L 46.9735 376.392291 
L 46.9735 366.925822 
" style="fill:#d4ae85;stroke:#ffffff;"/>
    <path clip-path="url(#pff7c9e4217)" d="M 58.002 366.925822 
L 69.0305 366.925822 
L 69.0305 376.392291 
L 58.002 376.392291 
L 58.002 366.925822 
" style="fill:#fefdfc;stroke:#ffffff;"/>
    <path clip-path="url(#pff7c9e4217)" d="M 69.0305 366.925822 
L 80.059 366.925822 
L 80.059 376.392291 
L 69.0305 376.392291 
L 69.0305 366.925822 
" style="fill:#fbf7f4;stroke:#ffffff;"/>
    <path clip-path="url(#pff7c9e4217)" d="M 35.945 376.392291 
L 46.9735 376.392291 
L 46.9735 385.85876 
L 35.945 385.85876 
L 35.945 376.392291 
" style="fill:#ecdbca;stroke:#ffffff;"/>
    <path clip-path="url(#pff7c9e4217)" d="M 46.9735 376.392291 
L 58.002 376.392291 
L 58.002 385.85876 
L 46.9735 385.85876 
L 46.9735 376.392291 
" style="fill:#d4cdda;stroke:#ffffff;"/>
    <path clip-path="url(#pff7c9e4217)" d="M 58.002 376.392291 
L 69.0305 376.392291 
L 69.0305 385.85876 
L 58.002 385.85876 
L 58.002 376.392291 
" style="fill:#f3e9df;stroke:#ffffff;"/>
    <path clip-path="url(#pff7c9e4217)" d="M 69.0305 376.392291 
L 80.059 376.392291 
L 80.059 385.85876 
L 69.0305 385.85876 
L 69.0305 376.392291 
" style="fill:#dbd5e0;stroke:#ffffff;"/>
    <path clip-path="url(#pff7c9e4217)" d="M 35.945 385.85876 
L 46.9735 385.85876 
L 46.9735 395.325229 
L 35.945 395.325229 
L 35.945 385.85876 
" style="fill:#e3caaf;stroke:#ffffff;"/>
    <path clip-path="url(#pff7c9e4217)" d="M 46.9735 385.85876 
L 58.002 385.85876 
L 58.002 395.325229 
L 46.9735 395.325229 
L 46.9735 385.85876 
" style="fill:#e8e5ec;stroke:#ffffff;"/>
    <path clip-path="url(#pff7c9e4217)" d="M 58.002 385.85876 
L 69.0305 385.85876 
L 69.0305 395.325229 
L 58.002 395.325229 
L 58.002 385.85876 
" style="fill:#a295ae;stroke:#ffffff;"/>
    <path clip-path="url(#pff7c9e4217)" d="M 69.0305 385.85876 
L 80.059 385.85876 
L 80.059 395.325229 
L 69.0305 395.325229 
L 69.0305 385.85876 
" style="fill:#d8d3de;stroke:#ffffff;"/>
    <path clip-path="url(#pff7c9e4217)" d="M 35.945 395.325229 
L 46.9735 395.325229 
L 46.9735 404.791698 
L 35.945 404.791698 
L 35.945 395.325229 
" style="fill:#faf9fb;stroke:#ffffff;"/>
    <path clip-path="url(#pff7c9e4217)" d="M 46.9735 395.325229 
L 58.002 395.325229 
L 58.002 404.791698 
L 46.9735 404.791698 
L 46.9735 395.325229 
" style="fill:#e4e0e8;stroke:#ffffff;"/>
    <path clip-path="url(#pff7c9e4217)" d="M 58.002 395.325229 
L 69.0305 395.325229 
L 69.0305 404.791698 
L 58.002 404.791698 
L 58.002 395.325229 
" style="fill:#dcd7e0;stroke:#ffffff;"/>
    <path clip-path="url(#pff7c9e4217)" d="M 69.0305 395.325229 
L 80.059 395.325229 
L 80.059 404.791698 
L 69.0305 404.791698 
L 69.0305 395.325229 
" style="fill:#efe1d2;stroke:#ffffff;"/>
    <path clip-path="url(#pff7c9e4217)" d="M 35.945 404.791698 
L 46.9735 404.791698 
L 46.9735 414.258167 
L 35.945 414.258167 
L 35.945 404.791698 
" style="fill:#e2c9ae;stroke:#ffffff;"/>
    <path clip-path="url(#pff7c9e4217)" d="M 46.9735 404.791698 
L 58.002 404.791698 
L 58.002 414.258167 
L 46.9735 414.258167 
L 46.9735 404.791698 
" style="fill:#f3e9df;stroke:#ffffff;"/>
    <path clip-path="url(#pff7c9e4217)" d="M 58.002 404.791698 
L 69.0305 404.791698 
L 69.0305 414.258167 
L 58.002 414.258167 
L 58.002 404.791698 
" style="fill:#ab9fb6;stroke:#ffffff;"/>
    <path clip-path="url(#pff7c9e4217)" d="M 69.0305 404.791698 
L 80.059 404.791698 
L 80.059 414.258167 
L 69.0305 414.258167 
L 69.0305 404.791698 
" style="fill:#bab0c3;stroke:#ffffff;"/>
    <path clip-path="url(#pff7c9e4217)" d="M 35.945 414.258167 
L 46.9735 414.258167 
L 46.9735 423.724636 
L 35.945 423.724636 
L 35.945 414.258167 
" style="fill:#fffefe;stroke:#ffffff;"/>
    <path clip-path="url(#pff7c9e4217)" d="M 46.9735 414.258167 
L 58.002 414.258167 
L 58.002 423.724636 
L 46.9735 423.724636 
L 46.9735 414.258167 
" style="fill:#fcfcfc;stroke:#ffffff;"/>
    <path clip-path="url(#pff7c9e4217)" d="M 58.002 414.258167 
L 69.0305 414.258167 
L 69.0305 423.724636 
L 58.002 423.724636 
L 58.002 414.258167 
" style="fill:#e0dce4;stroke:#ffffff;"/>
    <path clip-path="url(#pff7c9e4217)" d="M 69.0305 414.258167 
L 80.059 414.258167 
L 80.059 423.724636 
L 69.0305 423.724636 
L 69.0305 414.258167 
" style="fill:#e9d7c3;stroke:#ffffff;"/>
    <path clip-path="url(#pff7c9e4217)" d="M 35.945 423.724636 
L 46.9735 423.724636 
L 46.9735 433.191105 
L 35.945 433.191105 
L 35.945 423.724636 
" style="fill:#eedfcf;stroke:#ffffff;"/>
    <path clip-path="url(#pff7c9e4217)" d="M 46.9735 423.724636 
L 58.002 423.724636 
L 58.002 433.191105 
L 46.9735 433.191105 
L 46.9735 423.724636 
" style="fill:#fdfcfb;stroke:#ffffff;"/>
    <path clip-path="url(#pff7c9e4217)" d="M 58.002 423.724636 
L 69.0305 423.724636 
L 69.0305 433.191105 
L 58.002 433.191105 
L 58.002 423.724636 
" style="fill:#f5ece2;stroke:#ffffff;"/>
    <path clip-path="url(#pff7c9e4217)" d="M 69.0305 423.724636 
L 80.059 423.724636 
L 80.059 433.191105 
L 69.0305 433.191105 
L 69.0305 423.724636 
" style="fill:#d8b692;stroke:#ffffff;"/>
    <path clip-path="url(#pff7c9e4217)" d="M 35.945 433.191105 
L 46.9735 433.191105 
L 46.9735 442.657574 
L 35.945 442.657574 
L 35.945 433.191105 
" style="fill:#e6e3ea;stroke:#ffffff;"/>
    <path clip-path="url(#pff7c9e4217)" d="M 46.9735 433.191105 
L 58.002 433.191105 
L 58.002 442.657574 
L 46.9735 442.657574 
L 46.9735 433.191105 
" style="fill:#faf5f0;stroke:#ffffff;"/>
    <path clip-path="url(#pff7c9e4217)" d="M 58.002 433.191105 
L 69.0305 433.191105 
L 69.0305 442.657574 
L 58.002 442.657574 
L 58.002 433.191105 
" style="fill:#ebd9c6;stroke:#ffffff;"/>
    <path clip-path="url(#pff7c9e4217)" d="M 69.0305 433.191105 
L 80.059 433.191105 
L 80.059 442.657574 
L 69.0305 442.657574 
L 69.0305 433.191105 
" style="fill:#ebd9c6;stroke:#ffffff;"/>
    <path clip-path="url(#pff7c9e4217)" d="M 35.945 442.657574 
L 46.9735 442.657574 
L 46.9735 452.124043 
L 35.945 452.124043 
L 35.945 442.657574 
" style="fill:#e9d7c3;stroke:#ffffff;"/>
    <path clip-path="url(#pff7c9e4217)" d="M 46.9735 442.657574 
L 58.002 442.657574 
L 58.002 452.124043 
L 46.9735 452.124043 
L 46.9735 442.657574 
" style="fill:#bab0c3;stroke:#ffffff;"/>
    <path clip-path="url(#pff7c9e4217)" d="M 58.002 442.657574 
L 69.0305 442.657574 
L 69.0305 452.124043 
L 58.002 452.124043 
L 58.002 442.657574 
" style="fill:#9282a0;stroke:#ffffff;"/>
    <path clip-path="url(#pff7c9e4217)" d="M 69.0305 442.657574 
L 80.059 442.657574 
L 80.059 452.124043 
L 69.0305 452.124043 
L 69.0305 442.657574 
" style="fill:#9586a3;stroke:#ffffff;"/>
    <path clip-path="url(#pff7c9e4217)" d="M 35.945 452.124043 
L 46.9735 452.124043 
L 46.9735 461.590512 
L 35.945 461.590512 
L 35.945 452.124043 
" style="fill:#e9d7c3;stroke:#ffffff;"/>
    <path clip-path="url(#pff7c9e4217)" d="M 46.9735 452.124043 
L 58.002 452.124043 
L 58.002 461.590512 
L 46.9735 461.590512 
L 46.9735 452.124043 
" style="fill:#fcfcfc;stroke:#ffffff;"/>
    <path clip-path="url(#pff7c9e4217)" d="M 58.002 452.124043 
L 69.0305 452.124043 
L 69.0305 461.590512 
L 58.002 461.590512 
L 58.002 452.124043 
" style="fill:#867596;stroke:#ffffff;"/>
    <path clip-path="url(#pff7c9e4217)" d="M 69.0305 452.124043 
L 80.059 452.124043 
L 80.059 461.590512 
L 69.0305 461.590512 
L 69.0305 452.124043 
" style="fill:#9c8eaa;stroke:#ffffff;"/>
    <path clip-path="url(#pff7c9e4217)" d="M 35.945 461.590512 
L 46.9735 461.590512 
L 46.9735 471.056981 
L 35.945 471.056981 
L 35.945 461.590512 
" style="fill:#f5ede4;stroke:#ffffff;"/>
    <path clip-path="url(#pff7c9e4217)" d="M 46.9735 461.590512 
L 58.002 461.590512 
L 58.002 471.056981 
L 46.9735 471.056981 
L 46.9735 461.590512 
" style="fill:#e5e1e8;stroke:#ffffff;"/>
    <path clip-path="url(#pff7c9e4217)" d="M 58.002 461.590512 
L 69.0305 461.590512 
L 69.0305 471.056981 
L 58.002 471.056981 
L 58.002 461.590512 
" style="fill:#4d3e5b;stroke:#ffffff;"/>
    <path clip-path="url(#pff7c9e4217)" d="M 69.0305 461.590512 
L 80.059 461.590512 
L 80.059 471.056981 
L 69.0305 471.056981 
L 69.0305 461.590512 
" style="fill:#867596;stroke:#ffffff;"/>
    <path clip-path="url(#pff7c9e4217)" d="M 35.945 471.056981 
L 46.9735 471.056981 
L 46.9735 480.52345 
L 35.945 480.52345 
L 35.945 471.056981 
" style="fill:#f7f6f8;stroke:#ffffff;"/>
    <path clip-path="url(#pff7c9e4217)" d="M 46.9735 471.056981 
L 58.002 471.056981 
L 58.002 480.52345 
L 46.9735 480.52345 
L 46.9735 471.056981 
" style="fill:#ecdbca;stroke:#ffffff;"/>
    <path clip-path="url(#pff7c9e4217)" d="M 58.002 471.056981 
L 69.0305 471.056981 
L 69.0305 480.52345 
L 58.002 480.52345 
L 58.002 471.056981 
" style="fill:#998aa6;stroke:#ffffff;"/>
    <path clip-path="url(#pff7c9e4217)" d="M 69.0305 471.056981 
L 80.059 471.056981 
L 80.059 480.52345 
L 69.0305 480.52345 
L 69.0305 471.056981 
" style="fill:#cdc6d3;stroke:#ffffff;"/>
    <path clip-path="url(#pff7c9e4217)" d="M 35.945 480.52345 
L 46.9735 480.52345 
L 46.9735 489.989919 
L 35.945 489.989919 
L 35.945 480.52345 
" style="fill:none;stroke:#ffffff;"/>
    <path clip-path="url(#pff7c9e4217)" d="M 46.9735 480.52345 
L 58.002 480.52345 
L 58.002 489.989919 
L 46.9735 489.989919 
L 46.9735 480.52345 
" style="fill:#4d3e5b;stroke:#ffffff;"/>
    <path clip-path="url(#pff7c9e4217)" d="M 58.002 480.52345 
L 69.0305 480.52345 
L 69.0305 489.989919 
L 58.002 489.989919 
L 58.002 480.52345 
" style="fill:#a599b2;stroke:#ffffff;"/>
    <path clip-path="url(#pff7c9e4217)" d="M 69.0305 480.52345 
L 80.059 480.52345 
L 80.059 489.989919 
L 69.0305 489.989919 
L 69.0305 480.52345 
" style="fill:#766388;stroke:#ffffff;"/>
    <path clip-path="url(#pff7c9e4217)" d="M 35.945 489.989919 
L 46.9735 489.989919 
L 46.9735 499.456388 
L 35.945 499.456388 
L 35.945 489.989919 
" style="fill:#e9d7c3;stroke:#ffffff;"/>
    <path clip-path="url(#pff7c9e4217)" d="M 46.9735 489.989919 
L 58.002 489.989919 
L 58.002 499.456388 
L 46.9735 499.456388 
L 46.9735 489.989919 
" style="fill:#4d3e5b;stroke:#ffffff;"/>
    <path clip-path="url(#pff7c9e4217)" d="M 58.002 489.989919 
L 69.0305 489.989919 
L 69.0305 499.456388 
L 58.002 499.456388 
L 58.002 489.989919 
" style="fill:#4d3e5b;stroke:#ffffff;"/>
    <path clip-path="url(#pff7c9e4217)" d="M 69.0305 489.989919 
L 80.059 489.989919 
L 80.059 499.456388 
L 69.0305 499.456388 
L 69.0305 489.989919 
" style="fill:#4d3e5b;stroke:#ffffff;"/>
    <path clip-path="url(#pff7c9e4217)" d="M 35.945 499.456388 
L 46.9735 499.456388 
L 46.9735 508.922857 
L 35.945 508.922857 
L 35.945 499.456388 
" style="fill:#e6d1ba;stroke:#ffffff;"/>
    <path clip-path="url(#pff7c9e4217)" d="M 46.9735 499.456388 
L 58.002 499.456388 
L 58.002 508.922857 
L 46.9735 508.922857 
L 46.9735 499.456388 
" style="fill:#e3cbb1;stroke:#ffffff;"/>
    <path clip-path="url(#pff7c9e4217)" d="M 58.002 499.456388 
L 69.0305 499.456388 
L 69.0305 508.922857 
L 58.002 508.922857 
L 58.002 499.456388 
" style="fill:#9e91ac;stroke:#ffffff;"/>
    <path clip-path="url(#pff7c9e4217)" d="M 69.0305 499.456388 
L 80.059 499.456388 
L 80.059 508.922857 
L 69.0305 508.922857 
L 69.0305 499.456388 
" style="fill:#c6bece;stroke:#ffffff;"/>
    <path clip-path="url(#pff7c9e4217)" d="M 35.945 508.922857 
L 46.9735 508.922857 
L 46.9735 518.389326 
L 35.945 518.389326 
L 35.945 508.922857 
" style="fill:#f3e9df;stroke:#ffffff;"/>
    <path clip-path="url(#pff7c9e4217)" d="M 46.9735 508.922857 
L 58.002 508.922857 
L 58.002 518.389326 
L 46.9735 518.389326 
L 46.9735 508.922857 
" style="fill:#b7acc0;stroke:#ffffff;"/>
    <path clip-path="url(#pff7c9e4217)" d="M 58.002 508.922857 
L 69.0305 508.922857 
L 69.0305 518.389326 
L 58.002 518.389326 
L 58.002 508.922857 
" style="fill:#8c7c9c;stroke:#ffffff;"/>
    <path clip-path="url(#pff7c9e4217)" d="M 69.0305 508.922857 
L 80.059 508.922857 
L 80.059 518.389326 
L 69.0305 518.389326 
L 69.0305 508.922857 
" style="fill:#4d3e5b;stroke:#ffffff;"/>
    <path clip-path="url(#pff7c9e4217)" d="M 35.945 518.389326 
L 46.9735 518.389326 
L 46.9735 527.855795 
L 35.945 527.855795 
L 35.945 518.389326 
" style="fill:#f1eef2;stroke:#ffffff;"/>
    <path clip-path="url(#pff7c9e4217)" d="M 46.9735 518.389326 
L 58.002 518.389326 
L 58.002 527.855795 
L 46.9735 527.855795 
L 46.9735 518.389326 
" style="fill:#f1eef2;stroke:#ffffff;"/>
    <path clip-path="url(#pff7c9e4217)" d="M 58.002 518.389326 
L 69.0305 518.389326 
L 69.0305 527.855795 
L 58.002 527.855795 
L 58.002 518.389326 
" style="fill:#f2e6d9;stroke:#ffffff;"/>
    <path clip-path="url(#pff7c9e4217)" d="M 69.0305 518.389326 
L 80.059 518.389326 
L 80.059 527.855795 
L 69.0305 527.855795 
L 69.0305 518.389326 
" style="fill:#e6e3ea;stroke:#ffffff;"/>
    <path clip-path="url(#pff7c9e4217)" d="M 35.945 527.855795 
L 46.9735 527.855795 
L 46.9735 537.322264 
L 35.945 537.322264 
L 35.945 527.855795 
" style="fill:#d7b590;stroke:#ffffff;"/>
    <path clip-path="url(#pff7c9e4217)" d="M 46.9735 527.855795 
L 58.002 527.855795 
L 58.002 537.322264 
L 46.9735 537.322264 
L 46.9735 527.855795 
" style="fill:#7f6d90;stroke:#ffffff;"/>
    <path clip-path="url(#pff7c9e4217)" d="M 58.002 527.855795 
L 69.0305 527.855795 
L 69.0305 537.322264 
L 58.002 537.322264 
L 58.002 527.855795 
" style="fill:#d6d0dc;stroke:#ffffff;"/>
    <path clip-path="url(#pff7c9e4217)" d="M 69.0305 527.855795 
L 80.059 527.855795 
L 80.059 537.322264 
L 69.0305 537.322264 
L 69.0305 527.855795 
" style="fill:#b9afc2;stroke:#ffffff;"/>
    <path clip-path="url(#pff7c9e4217)" d="M 35.945 537.322264 
L 46.9735 537.322264 
L 46.9735 546.788733 
L 35.945 546.788733 
L 35.945 537.322264 
" style="fill:#f7f6f8;stroke:#ffffff;"/>
    <path clip-path="url(#pff7c9e4217)" d="M 46.9735 537.322264 
L 58.002 537.322264 
L 58.002 546.788733 
L 46.9735 546.788733 
L 46.9735 537.322264 
" style="fill:#fbf7f4;stroke:#ffffff;"/>
    <path clip-path="url(#pff7c9e4217)" d="M 58.002 537.322264 
L 69.0305 537.322264 
L 69.0305 546.788733 
L 58.002 546.788733 
L 58.002 537.322264 
" style="fill:#fdfdfe;stroke:#ffffff;"/>
    <path clip-path="url(#pff7c9e4217)" d="M 69.0305 537.322264 
L 80.059 537.322264 
L 80.059 546.788733 
L 69.0305 546.788733 
L 69.0305 537.322264 
" style="fill:#e1c7ac;stroke:#ffffff;"/>
    <path clip-path="url(#pff7c9e4217)" d="M 35.945 546.788733 
L 46.9735 546.788733 
L 46.9735 556.255202 
L 35.945 556.255202 
L 35.945 546.788733 
" style="fill:#eee0d1;stroke:#ffffff;"/>
    <path clip-path="url(#pff7c9e4217)" d="M 46.9735 546.788733 
L 58.002 546.788733 
L 58.002 556.255202 
L 46.9735 556.255202 
L 46.9735 546.788733 
" style="fill:#c6bece;stroke:#ffffff;"/>
    <path clip-path="url(#pff7c9e4217)" d="M 58.002 546.788733 
L 69.0305 546.788733 
L 69.0305 556.255202 
L 58.002 556.255202 
L 58.002 546.788733 
" style="fill:#6f5b82;stroke:#ffffff;"/>
    <path clip-path="url(#pff7c9e4217)" d="M 69.0305 546.788733 
L 80.059 546.788733 
L 80.059 556.255202 
L 69.0305 556.255202 
L 69.0305 546.788733 
" style="fill:#79678c;stroke:#ffffff;"/>
    <path clip-path="url(#pff7c9e4217)" d="M 35.945 556.255202 
L 46.9735 556.255202 
L 46.9735 565.721671 
L 35.945 565.721671 
L 35.945 556.255202 
" style="fill:#f0e2d4;stroke:#ffffff;"/>
    <path clip-path="url(#pff7c9e4217)" d="M 46.9735 556.255202 
L 58.002 556.255202 
L 58.002 565.721671 
L 46.9735 565.721671 
L 46.9735 556.255202 
" style="fill:#c2bacb;stroke:#ffffff;"/>
    <path clip-path="url(#pff7c9e4217)" d="M 58.002 556.255202 
L 69.0305 556.255202 
L 69.0305 565.721671 
L 58.002 565.721671 
L 58.002 556.255202 
" style="fill:#4d3e5b;stroke:#ffffff;"/>
    <path clip-path="url(#pff7c9e4217)" d="M 69.0305 556.255202 
L 80.059 556.255202 
L 80.059 565.721671 
L 69.0305 565.721671 
L 69.0305 556.255202 
" style="fill:#4d3e5b;stroke:#ffffff;"/>
   </g>
   <g id="matplotlib.axis_1"/>
   <g id="matplotlib.axis_2">
    <g id="ytick_1">
     <g id="line2d_1"/>
     <g id="text_1">
      <!-- ICP0 -->
      <g transform="translate(12.799 15.276547)scale(0.088 -0.088)">
       <defs>
        <path d="M 9.8125 72.90625 
L 19.671875 72.90625 
L 19.671875 0 
L 9.8125 0 
z
" id="DejaVuSans-73"/>
        <path d="M 64.40625 67.28125 
L 64.40625 56.890625 
Q 59.421875 61.53125 53.78125 63.8125 
Q 48.140625 66.109375 41.796875 66.109375 
Q 29.296875 66.109375 22.65625 58.46875 
Q 16.015625 50.828125 16.015625 36.375 
Q 16.015625 21.96875 22.65625 14.328125 
Q 29.296875 6.6875 41.796875 6.6875 
Q 48.140625 6.6875 53.78125 8.984375 
Q 59.421875 11.28125 64.40625 15.921875 
L 64.40625 5.609375 
Q 59.234375 2.09375 53.4375 0.328125 
Q 47.65625 -1.421875 41.21875 -1.421875 
Q 24.65625 -1.421875 15.125 8.703125 
Q 5.609375 18.84375 5.609375 36.375 
Q 5.609375 53.953125 15.125 64.078125 
Q 24.65625 74.21875 41.21875 74.21875 
Q 47.75 74.21875 53.53125 72.484375 
Q 59.328125 70.75 64.40625 67.28125 
z
" id="DejaVuSans-67"/>
        <path d="M 19.671875 64.796875 
L 19.671875 37.40625 
L 32.078125 37.40625 
Q 38.96875 37.40625 42.71875 40.96875 
Q 46.484375 44.53125 46.484375 51.125 
Q 46.484375 57.671875 42.71875 61.234375 
Q 38.96875 64.796875 32.078125 64.796875 
z
M 9.8125 72.90625 
L 32.078125 72.90625 
Q 44.34375 72.90625 50.609375 67.359375 
Q 56.890625 61.8125 56.890625 51.125 
Q 56.890625 40.328125 50.609375 34.8125 
Q 44.34375 29.296875 32.078125 29.296875 
L 19.671875 29.296875 
L 19.671875 0 
L 9.8125 0 
z
" id="DejaVuSans-80"/>
        <path d="M 31.78125 66.40625 
Q 24.171875 66.40625 20.328125 58.90625 
Q 16.5 51.421875 16.5 36.375 
Q 16.5 21.390625 20.328125 13.890625 
Q 24.171875 6.390625 31.78125 6.390625 
Q 39.453125 6.390625 43.28125 13.890625 
Q 47.125 21.390625 47.125 36.375 
Q 47.125 51.421875 43.28125 58.90625 
Q 39.453125 66.40625 31.78125 66.40625 
z
M 31.78125 74.21875 
Q 44.046875 74.21875 50.515625 64.515625 
Q 56.984375 54.828125 56.984375 36.375 
Q 56.984375 17.96875 50.515625 8.265625 
Q 44.046875 -1.421875 31.78125 -1.421875 
Q 19.53125 -1.421875 13.0625 8.265625 
Q 6.59375 17.96875 6.59375 36.375 
Q 6.59375 54.828125 13.0625 64.515625 
Q 19.53125 74.21875 31.78125 74.21875 
z
" id="DejaVuSans-48"/>
       </defs>
       <use xlink:href="#DejaVuSans-73"/>
       <use x="29.492188" xlink:href="#DejaVuSans-67"/>
       <use x="99.316406" xlink:href="#DejaVuSans-80"/>
       <use x="159.619141" xlink:href="#DejaVuSans-48"/>
      </g>
     </g>
    </g>
    <g id="ytick_2">
     <g id="line2d_2"/>
     <g id="text_2">
      <!-- ICP22 -->
      <g transform="translate(7.2 24.743016)scale(0.088 -0.088)">
       <defs>
        <path d="M 19.1875 8.296875 
L 53.609375 8.296875 
L 53.609375 0 
L 7.328125 0 
L 7.328125 8.296875 
Q 12.9375 14.109375 22.625 23.890625 
Q 32.328125 33.6875 34.8125 36.53125 
Q 39.546875 41.84375 41.421875 45.53125 
Q 43.3125 49.21875 43.3125 52.78125 
Q 43.3125 58.59375 39.234375 62.25 
Q 35.15625 65.921875 28.609375 65.921875 
Q 23.96875 65.921875 18.8125 64.3125 
Q 13.671875 62.703125 7.8125 59.421875 
L 7.8125 69.390625 
Q 13.765625 71.78125 18.9375 73 
Q 24.125 74.21875 28.421875 74.21875 
Q 39.75 74.21875 46.484375 68.546875 
Q 53.21875 62.890625 53.21875 53.421875 
Q 53.21875 48.921875 51.53125 44.890625 
Q 49.859375 40.875 45.40625 35.40625 
Q 44.1875 33.984375 37.640625 27.21875 
Q 31.109375 20.453125 19.1875 8.296875 
z
" id="DejaVuSans-50"/>
       </defs>
       <use xlink:href="#DejaVuSans-73"/>
       <use x="29.492188" xlink:href="#DejaVuSans-67"/>
       <use x="99.316406" xlink:href="#DejaVuSans-80"/>
       <use x="159.619141" xlink:href="#DejaVuSans-50"/>
       <use x="223.242188" xlink:href="#DejaVuSans-50"/>
      </g>
     </g>
    </g>
    <g id="ytick_3">
     <g id="line2d_3"/>
     <g id="text_3">
      <!-- ICP4 -->
      <g transform="translate(12.799 34.209485)scale(0.088 -0.088)">
       <defs>
        <path d="M 37.796875 64.3125 
L 12.890625 25.390625 
L 37.796875 25.390625 
z
M 35.203125 72.90625 
L 47.609375 72.90625 
L 47.609375 25.390625 
L 58.015625 25.390625 
L 58.015625 17.1875 
L 47.609375 17.1875 
L 47.609375 0 
L 37.796875 0 
L 37.796875 17.1875 
L 4.890625 17.1875 
L 4.890625 26.703125 
z
" id="DejaVuSans-52"/>
       </defs>
       <use xlink:href="#DejaVuSans-73"/>
       <use x="29.492188" xlink:href="#DejaVuSans-67"/>
       <use x="99.316406" xlink:href="#DejaVuSans-80"/>
       <use x="159.619141" xlink:href="#DejaVuSans-52"/>
      </g>
     </g>
    </g>
    <g id="ytick_4">
     <g id="line2d_4"/>
     <g id="text_4">
      <!-- UL54 -->
      <g transform="translate(9.90325 43.675954)scale(0.088 -0.088)">
       <defs>
        <path d="M 8.6875 72.90625 
L 18.609375 72.90625 
L 18.609375 28.609375 
Q 18.609375 16.890625 22.84375 11.734375 
Q 27.09375 6.59375 36.625 6.59375 
Q 46.09375 6.59375 50.34375 11.734375 
Q 54.59375 16.890625 54.59375 28.609375 
L 54.59375 72.90625 
L 64.5 72.90625 
L 64.5 27.390625 
Q 64.5 13.140625 57.4375 5.859375 
Q 50.390625 -1.421875 36.625 -1.421875 
Q 22.796875 -1.421875 15.734375 5.859375 
Q 8.6875 13.140625 8.6875 27.390625 
z
" id="DejaVuSans-85"/>
        <path d="M 9.8125 72.90625 
L 19.671875 72.90625 
L 19.671875 8.296875 
L 55.171875 8.296875 
L 55.171875 0 
L 9.8125 0 
z
" id="DejaVuSans-76"/>
        <path d="M 10.796875 72.90625 
L 49.515625 72.90625 
L 49.515625 64.59375 
L 19.828125 64.59375 
L 19.828125 46.734375 
Q 21.96875 47.46875 24.109375 47.828125 
Q 26.265625 48.1875 28.421875 48.1875 
Q 40.625 48.1875 47.75 41.5 
Q 54.890625 34.8125 54.890625 23.390625 
Q 54.890625 11.625 47.5625 5.09375 
Q 40.234375 -1.421875 26.90625 -1.421875 
Q 22.3125 -1.421875 17.546875 -0.640625 
Q 12.796875 0.140625 7.71875 1.703125 
L 7.71875 11.625 
Q 12.109375 9.234375 16.796875 8.0625 
Q 21.484375 6.890625 26.703125 6.890625 
Q 35.15625 6.890625 40.078125 11.328125 
Q 45.015625 15.765625 45.015625 23.390625 
Q 45.015625 31 40.078125 35.4375 
Q 35.15625 39.890625 26.703125 39.890625 
Q 22.75 39.890625 18.8125 39.015625 
Q 14.890625 38.140625 10.796875 36.28125 
z
" id="DejaVuSans-53"/>
       </defs>
       <use xlink:href="#DejaVuSans-85"/>
       <use x="73.193359" xlink:href="#DejaVuSans-76"/>
       <use x="128.90625" xlink:href="#DejaVuSans-53"/>
       <use x="192.529297" xlink:href="#DejaVuSans-52"/>
      </g>
     </g>
    </g>
    <g id="ytick_5">
     <g id="line2d_5"/>
     <g id="text_5">
      <!-- US12 -->
      <g transform="translate(9.219875 53.142423)scale(0.088 -0.088)">
       <defs>
        <path d="M 53.515625 70.515625 
L 53.515625 60.890625 
Q 47.90625 63.578125 42.921875 64.890625 
Q 37.9375 66.21875 33.296875 66.21875 
Q 25.25 66.21875 20.875 63.09375 
Q 16.5 59.96875 16.5 54.203125 
Q 16.5 49.359375 19.40625 46.890625 
Q 22.3125 44.4375 30.421875 42.921875 
L 36.375 41.703125 
Q 47.40625 39.59375 52.65625 34.296875 
Q 57.90625 29 57.90625 20.125 
Q 57.90625 9.515625 50.796875 4.046875 
Q 43.703125 -1.421875 29.984375 -1.421875 
Q 24.8125 -1.421875 18.96875 -0.25 
Q 13.140625 0.921875 6.890625 3.21875 
L 6.890625 13.375 
Q 12.890625 10.015625 18.65625 8.296875 
Q 24.421875 6.59375 29.984375 6.59375 
Q 38.421875 6.59375 43.015625 9.90625 
Q 47.609375 13.234375 47.609375 19.390625 
Q 47.609375 24.75 44.3125 27.78125 
Q 41.015625 30.8125 33.5 32.328125 
L 27.484375 33.5 
Q 16.453125 35.6875 11.515625 40.375 
Q 6.59375 45.0625 6.59375 53.421875 
Q 6.59375 63.09375 13.40625 68.65625 
Q 20.21875 74.21875 32.171875 74.21875 
Q 37.3125 74.21875 42.625 73.28125 
Q 47.953125 72.359375 53.515625 70.515625 
z
" id="DejaVuSans-83"/>
        <path d="M 12.40625 8.296875 
L 28.515625 8.296875 
L 28.515625 63.921875 
L 10.984375 60.40625 
L 10.984375 69.390625 
L 28.421875 72.90625 
L 38.28125 72.90625 
L 38.28125 8.296875 
L 54.390625 8.296875 
L 54.390625 0 
L 12.40625 0 
z
" id="DejaVuSans-49"/>
       </defs>
       <use xlink:href="#DejaVuSans-85"/>
       <use x="73.193359" xlink:href="#DejaVuSans-83"/>
       <use x="136.669922" xlink:href="#DejaVuSans-49"/>
       <use x="200.292969" xlink:href="#DejaVuSans-50"/>
      </g>
     </g>
    </g>
    <g id="ytick_6">
     <g id="line2d_6"/>
     <g id="text_6">
      <!-- DBP -->
      <g transform="translate(14.32525 62.608892)scale(0.088 -0.088)">
       <defs>
        <path d="M 19.671875 64.796875 
L 19.671875 8.109375 
L 31.59375 8.109375 
Q 46.6875 8.109375 53.6875 14.9375 
Q 60.6875 21.78125 60.6875 36.53125 
Q 60.6875 51.171875 53.6875 57.984375 
Q 46.6875 64.796875 31.59375 64.796875 
z
M 9.8125 72.90625 
L 30.078125 72.90625 
Q 51.265625 72.90625 61.171875 64.09375 
Q 71.09375 55.28125 71.09375 36.53125 
Q 71.09375 17.671875 61.125 8.828125 
Q 51.171875 0 30.078125 0 
L 9.8125 0 
z
" id="DejaVuSans-68"/>
        <path d="M 19.671875 34.8125 
L 19.671875 8.109375 
L 35.5 8.109375 
Q 43.453125 8.109375 47.28125 11.40625 
Q 51.125 14.703125 51.125 21.484375 
Q 51.125 28.328125 47.28125 31.5625 
Q 43.453125 34.8125 35.5 34.8125 
z
M 19.671875 64.796875 
L 19.671875 42.828125 
L 34.28125 42.828125 
Q 41.5 42.828125 45.03125 45.53125 
Q 48.578125 48.25 48.578125 53.8125 
Q 48.578125 59.328125 45.03125 62.0625 
Q 41.5 64.796875 34.28125 64.796875 
z
M 9.8125 72.90625 
L 35.015625 72.90625 
Q 46.296875 72.90625 52.390625 68.21875 
Q 58.5 63.53125 58.5 54.890625 
Q 58.5 48.1875 55.375 44.234375 
Q 52.25 40.28125 46.1875 39.3125 
Q 53.46875 37.75 57.5 32.78125 
Q 61.53125 27.828125 61.53125 20.40625 
Q 61.53125 10.640625 54.890625 5.3125 
Q 48.25 0 35.984375 0 
L 9.8125 0 
z
" id="DejaVuSans-66"/>
       </defs>
       <use xlink:href="#DejaVuSans-68"/>
       <use x="77.001953" xlink:href="#DejaVuSans-66"/>
       <use x="145.605469" xlink:href="#DejaVuSans-80"/>
      </g>
     </g>
    </g>
    <g id="ytick_7">
     <g id="line2d_7"/>
     <g id="text_7">
      <!-- DUT -->
      <g transform="translate(13.853625 72.075361)scale(0.088 -0.088)">
       <defs>
        <path d="M -0.296875 72.90625 
L 61.375 72.90625 
L 61.375 64.59375 
L 35.5 64.59375 
L 35.5 0 
L 25.59375 0 
L 25.59375 64.59375 
L -0.296875 64.59375 
z
" id="DejaVuSans-84"/>
       </defs>
       <use xlink:href="#DejaVuSans-68"/>
       <use x="77.001953" xlink:href="#DejaVuSans-85"/>
       <use x="150.195312" xlink:href="#DejaVuSans-84"/>
      </g>
     </g>
    </g>
    <g id="ytick_8">
     <g id="line2d_8"/>
     <g id="text_8">
      <!-- HELI -->
      <g transform="translate(12.767375 81.54183)scale(0.088 -0.088)">
       <defs>
        <path d="M 9.8125 72.90625 
L 19.671875 72.90625 
L 19.671875 43.015625 
L 55.515625 43.015625 
L 55.515625 72.90625 
L 65.375 72.90625 
L 65.375 0 
L 55.515625 0 
L 55.515625 34.71875 
L 19.671875 34.71875 
L 19.671875 0 
L 9.8125 0 
z
" id="DejaVuSans-72"/>
        <path d="M 9.8125 72.90625 
L 55.90625 72.90625 
L 55.90625 64.59375 
L 19.671875 64.59375 
L 19.671875 43.015625 
L 54.390625 43.015625 
L 54.390625 34.71875 
L 19.671875 34.71875 
L 19.671875 8.296875 
L 56.78125 8.296875 
L 56.78125 0 
L 9.8125 0 
z
" id="DejaVuSans-69"/>
       </defs>
       <use xlink:href="#DejaVuSans-72"/>
       <use x="75.195312" xlink:href="#DejaVuSans-69"/>
       <use x="138.378906" xlink:href="#DejaVuSans-76"/>
       <use x="194.091797" xlink:href="#DejaVuSans-73"/>
      </g>
     </g>
    </g>
    <g id="ytick_9">
     <g id="line2d_9"/>
     <g id="text_9">
      <!-- RIR1 -->
      <g transform="translate(12.02075 91.008299)scale(0.088 -0.088)">
       <defs>
        <path d="M 44.390625 34.1875 
Q 47.5625 33.109375 50.5625 29.59375 
Q 53.5625 26.078125 56.59375 19.921875 
L 66.609375 0 
L 56 0 
L 46.6875 18.703125 
Q 43.0625 26.03125 39.671875 28.421875 
Q 36.28125 30.8125 30.421875 30.8125 
L 19.671875 30.8125 
L 19.671875 0 
L 9.8125 0 
L 9.8125 72.90625 
L 32.078125 72.90625 
Q 44.578125 72.90625 50.734375 67.671875 
Q 56.890625 62.453125 56.890625 51.90625 
Q 56.890625 45.015625 53.6875 40.46875 
Q 50.484375 35.9375 44.390625 34.1875 
z
M 19.671875 64.796875 
L 19.671875 38.921875 
L 32.078125 38.921875 
Q 39.203125 38.921875 42.84375 42.21875 
Q 46.484375 45.515625 46.484375 51.90625 
Q 46.484375 58.296875 42.84375 61.546875 
Q 39.203125 64.796875 32.078125 64.796875 
z
" id="DejaVuSans-82"/>
       </defs>
       <use xlink:href="#DejaVuSans-82"/>
       <use x="69.482422" xlink:href="#DejaVuSans-73"/>
       <use x="98.974609" xlink:href="#DejaVuSans-82"/>
       <use x="168.457031" xlink:href="#DejaVuSans-49"/>
      </g>
     </g>
    </g>
    <g id="ytick_10">
     <g id="line2d_10"/>
     <g id="text_10">
      <!-- RIR2 -->
      <g transform="translate(12.02075 100.474768)scale(0.088 -0.088)">
       <use xlink:href="#DejaVuSans-82"/>
       <use x="69.482422" xlink:href="#DejaVuSans-73"/>
       <use x="98.974609" xlink:href="#DejaVuSans-82"/>
       <use x="168.457031" xlink:href="#DejaVuSans-50"/>
      </g>
     </g>
    </g>
    <g id="ytick_11">
     <g id="line2d_11"/>
     <g id="text_11">
      <!-- TK -->
      <g transform="translate(21.29925 109.941237)scale(0.088 -0.088)">
       <defs>
        <path d="M 9.8125 72.90625 
L 19.671875 72.90625 
L 19.671875 42.09375 
L 52.390625 72.90625 
L 65.09375 72.90625 
L 28.90625 38.921875 
L 67.671875 0 
L 54.6875 0 
L 19.671875 35.109375 
L 19.671875 0 
L 9.8125 0 
z
" id="DejaVuSans-75"/>
       </defs>
       <use xlink:href="#DejaVuSans-84"/>
       <use x="61.083984" xlink:href="#DejaVuSans-75"/>
      </g>
     </g>
    </g>
    <g id="ytick_12">
     <g id="line2d_12"/>
     <g id="text_12">
      <!-- UL12 -->
      <g transform="translate(9.90325 119.407706)scale(0.088 -0.088)">
       <use xlink:href="#DejaVuSans-85"/>
       <use x="73.193359" xlink:href="#DejaVuSans-76"/>
       <use x="128.90625" xlink:href="#DejaVuSans-49"/>
       <use x="192.529297" xlink:href="#DejaVuSans-50"/>
      </g>
     </g>
    </g>
    <g id="ytick_13">
     <g id="line2d_13"/>
     <g id="text_13">
      <!-- UL2 -->
      <g transform="translate(15.50225 128.874175)scale(0.088 -0.088)">
       <use xlink:href="#DejaVuSans-85"/>
       <use x="73.193359" xlink:href="#DejaVuSans-76"/>
       <use x="128.90625" xlink:href="#DejaVuSans-50"/>
      </g>
     </g>
    </g>
    <g id="ytick_14">
     <g id="line2d_14"/>
     <g id="text_14">
      <!-- UL30 -->
      <g transform="translate(9.90325 138.340644)scale(0.088 -0.088)">
       <defs>
        <path d="M 40.578125 39.3125 
Q 47.65625 37.796875 51.625 33 
Q 55.609375 28.21875 55.609375 21.1875 
Q 55.609375 10.40625 48.1875 4.484375 
Q 40.765625 -1.421875 27.09375 -1.421875 
Q 22.515625 -1.421875 17.65625 -0.515625 
Q 12.796875 0.390625 7.625 2.203125 
L 7.625 11.71875 
Q 11.71875 9.328125 16.59375 8.109375 
Q 21.484375 6.890625 26.8125 6.890625 
Q 36.078125 6.890625 40.9375 10.546875 
Q 45.796875 14.203125 45.796875 21.1875 
Q 45.796875 27.640625 41.28125 31.265625 
Q 36.765625 34.90625 28.71875 34.90625 
L 20.21875 34.90625 
L 20.21875 43.015625 
L 29.109375 43.015625 
Q 36.375 43.015625 40.234375 45.921875 
Q 44.09375 48.828125 44.09375 54.296875 
Q 44.09375 59.90625 40.109375 62.90625 
Q 36.140625 65.921875 28.71875 65.921875 
Q 24.65625 65.921875 20.015625 65.03125 
Q 15.375 64.15625 9.8125 62.3125 
L 9.8125 71.09375 
Q 15.4375 72.65625 20.34375 73.4375 
Q 25.25 74.21875 29.59375 74.21875 
Q 40.828125 74.21875 47.359375 69.109375 
Q 53.90625 64.015625 53.90625 55.328125 
Q 53.90625 49.265625 50.4375 45.09375 
Q 46.96875 40.921875 40.578125 39.3125 
z
" id="DejaVuSans-51"/>
       </defs>
       <use xlink:href="#DejaVuSans-85"/>
       <use x="73.193359" xlink:href="#DejaVuSans-76"/>
       <use x="128.90625" xlink:href="#DejaVuSans-51"/>
       <use x="192.529297" xlink:href="#DejaVuSans-48"/>
      </g>
     </g>
    </g>
    <g id="ytick_15">
     <g id="line2d_15"/>
     <g id="text_15">
      <!-- UL52 -->
      <g transform="translate(9.90325 147.807113)scale(0.088 -0.088)">
       <use xlink:href="#DejaVuSans-85"/>
       <use x="73.193359" xlink:href="#DejaVuSans-76"/>
       <use x="128.90625" xlink:href="#DejaVuSans-53"/>
       <use x="192.529297" xlink:href="#DejaVuSans-50"/>
      </g>
     </g>
    </g>
    <g id="ytick_16">
     <g id="line2d_16"/>
     <g id="text_16">
      <!-- UL8 -->
      <g transform="translate(15.50225 157.273582)scale(0.088 -0.088)">
       <defs>
        <path d="M 31.78125 34.625 
Q 24.75 34.625 20.71875 30.859375 
Q 16.703125 27.09375 16.703125 20.515625 
Q 16.703125 13.921875 20.71875 10.15625 
Q 24.75 6.390625 31.78125 6.390625 
Q 38.8125 6.390625 42.859375 10.171875 
Q 46.921875 13.96875 46.921875 20.515625 
Q 46.921875 27.09375 42.890625 30.859375 
Q 38.875 34.625 31.78125 34.625 
z
M 21.921875 38.8125 
Q 15.578125 40.375 12.03125 44.71875 
Q 8.5 49.078125 8.5 55.328125 
Q 8.5 64.0625 14.71875 69.140625 
Q 20.953125 74.21875 31.78125 74.21875 
Q 42.671875 74.21875 48.875 69.140625 
Q 55.078125 64.0625 55.078125 55.328125 
Q 55.078125 49.078125 51.53125 44.71875 
Q 48 40.375 41.703125 38.8125 
Q 48.828125 37.15625 52.796875 32.3125 
Q 56.78125 27.484375 56.78125 20.515625 
Q 56.78125 9.90625 50.3125 4.234375 
Q 43.84375 -1.421875 31.78125 -1.421875 
Q 19.734375 -1.421875 13.25 4.234375 
Q 6.78125 9.90625 6.78125 20.515625 
Q 6.78125 27.484375 10.78125 32.3125 
Q 14.796875 37.15625 21.921875 38.8125 
z
M 18.3125 54.390625 
Q 18.3125 48.734375 21.84375 45.5625 
Q 25.390625 42.390625 31.78125 42.390625 
Q 38.140625 42.390625 41.71875 45.5625 
Q 45.3125 48.734375 45.3125 54.390625 
Q 45.3125 60.0625 41.71875 63.234375 
Q 38.140625 66.40625 31.78125 66.40625 
Q 25.390625 66.40625 21.84375 63.234375 
Q 18.3125 60.0625 18.3125 54.390625 
z
" id="DejaVuSans-56"/>
       </defs>
       <use xlink:href="#DejaVuSans-85"/>
       <use x="73.193359" xlink:href="#DejaVuSans-76"/>
       <use x="128.90625" xlink:href="#DejaVuSans-56"/>
      </g>
     </g>
    </g>
    <g id="ytick_17">
     <g id="line2d_17"/>
     <g id="text_17">
      <!-- UL9 -->
      <g transform="translate(15.50225 166.740051)scale(0.088 -0.088)">
       <defs>
        <path d="M 10.984375 1.515625 
L 10.984375 10.5 
Q 14.703125 8.734375 18.5 7.8125 
Q 22.3125 6.890625 25.984375 6.890625 
Q 35.75 6.890625 40.890625 13.453125 
Q 46.046875 20.015625 46.78125 33.40625 
Q 43.953125 29.203125 39.59375 26.953125 
Q 35.25 24.703125 29.984375 24.703125 
Q 19.046875 24.703125 12.671875 31.3125 
Q 6.296875 37.9375 6.296875 49.421875 
Q 6.296875 60.640625 12.9375 67.421875 
Q 19.578125 74.21875 30.609375 74.21875 
Q 43.265625 74.21875 49.921875 64.515625 
Q 56.59375 54.828125 56.59375 36.375 
Q 56.59375 19.140625 48.40625 8.859375 
Q 40.234375 -1.421875 26.421875 -1.421875 
Q 22.703125 -1.421875 18.890625 -0.6875 
Q 15.09375 0.046875 10.984375 1.515625 
z
M 30.609375 32.421875 
Q 37.25 32.421875 41.125 36.953125 
Q 45.015625 41.5 45.015625 49.421875 
Q 45.015625 57.28125 41.125 61.84375 
Q 37.25 66.40625 30.609375 66.40625 
Q 23.96875 66.40625 20.09375 61.84375 
Q 16.21875 57.28125 16.21875 49.421875 
Q 16.21875 41.5 20.09375 36.953125 
Q 23.96875 32.421875 30.609375 32.421875 
z
" id="DejaVuSans-57"/>
       </defs>
       <use xlink:href="#DejaVuSans-85"/>
       <use x="73.193359" xlink:href="#DejaVuSans-76"/>
       <use x="128.90625" xlink:href="#DejaVuSans-57"/>
      </g>
     </g>
    </g>
    <g id="ytick_18">
     <g id="line2d_18"/>
     <g id="text_18">
      <!-- US3 -->
      <g transform="translate(14.818875 176.20652)scale(0.088 -0.088)">
       <use xlink:href="#DejaVuSans-85"/>
       <use x="73.193359" xlink:href="#DejaVuSans-83"/>
       <use x="136.669922" xlink:href="#DejaVuSans-51"/>
      </g>
     </g>
    </g>
    <g id="ytick_19">
     <g id="line2d_19"/>
     <g id="text_19">
      <!-- UL42 -->
      <g transform="translate(9.90325 185.672989)scale(0.088 -0.088)">
       <use xlink:href="#DejaVuSans-85"/>
       <use x="73.193359" xlink:href="#DejaVuSans-76"/>
       <use x="128.90625" xlink:href="#DejaVuSans-52"/>
       <use x="192.529297" xlink:href="#DejaVuSans-50"/>
      </g>
     </g>
    </g>
    <g id="ytick_20">
     <g id="line2d_20"/>
     <g id="text_20">
      <!-- US10 -->
      <g transform="translate(9.219875 195.139458)scale(0.088 -0.088)">
       <use xlink:href="#DejaVuSans-85"/>
       <use x="73.193359" xlink:href="#DejaVuSans-83"/>
       <use x="136.669922" xlink:href="#DejaVuSans-49"/>
       <use x="200.292969" xlink:href="#DejaVuSans-48"/>
      </g>
     </g>
    </g>
    <g id="ytick_21">
     <g id="line2d_21"/>
     <g id="text_21">
      <!-- US9 -->
      <g transform="translate(14.818875 204.605927)scale(0.088 -0.088)">
       <use xlink:href="#DejaVuSans-85"/>
       <use x="73.193359" xlink:href="#DejaVuSans-83"/>
       <use x="136.669922" xlink:href="#DejaVuSans-57"/>
      </g>
     </g>
    </g>
    <g id="ytick_22">
     <g id="line2d_22"/>
     <g id="text_22">
      <!-- CVC1 -->
      <g transform="translate(8.5365 214.072396)scale(0.088 -0.088)">
       <defs>
        <path d="M 28.609375 0 
L 0.78125 72.90625 
L 11.078125 72.90625 
L 34.1875 11.53125 
L 57.328125 72.90625 
L 67.578125 72.90625 
L 39.796875 0 
z
" id="DejaVuSans-86"/>
       </defs>
       <use xlink:href="#DejaVuSans-67"/>
       <use x="69.824219" xlink:href="#DejaVuSans-86"/>
       <use x="138.232422" xlink:href="#DejaVuSans-67"/>
       <use x="208.056641" xlink:href="#DejaVuSans-49"/>
      </g>
     </g>
    </g>
    <g id="ytick_23">
     <g id="line2d_23"/>
     <g id="text_23">
      <!-- MCP -->
      <g transform="translate(13.40125 223.538865)scale(0.088 -0.088)">
       <defs>
        <path d="M 9.8125 72.90625 
L 24.515625 72.90625 
L 43.109375 23.296875 
L 61.8125 72.90625 
L 76.515625 72.90625 
L 76.515625 0 
L 66.890625 0 
L 66.890625 64.015625 
L 48.09375 14.015625 
L 38.1875 14.015625 
L 19.390625 64.015625 
L 19.390625 0 
L 9.8125 0 
z
" id="DejaVuSans-77"/>
       </defs>
       <use xlink:href="#DejaVuSans-77"/>
       <use x="86.279297" xlink:href="#DejaVuSans-67"/>
       <use x="156.103516" xlink:href="#DejaVuSans-80"/>
      </g>
     </g>
    </g>
    <g id="ytick_24">
     <g id="line2d_24"/>
     <g id="text_24">
      <!-- UL14 -->
      <g transform="translate(9.90325 233.005334)scale(0.088 -0.088)">
       <use xlink:href="#DejaVuSans-85"/>
       <use x="73.193359" xlink:href="#DejaVuSans-76"/>
       <use x="128.90625" xlink:href="#DejaVuSans-49"/>
       <use x="192.529297" xlink:href="#DejaVuSans-52"/>
      </g>
     </g>
    </g>
    <g id="ytick_25">
     <g id="line2d_25"/>
     <g id="text_25">
      <!-- UL24 -->
      <g transform="translate(9.90325 242.471803)scale(0.088 -0.088)">
       <use xlink:href="#DejaVuSans-85"/>
       <use x="73.193359" xlink:href="#DejaVuSans-76"/>
       <use x="128.90625" xlink:href="#DejaVuSans-50"/>
       <use x="192.529297" xlink:href="#DejaVuSans-52"/>
      </g>
     </g>
    </g>
    <g id="ytick_26">
     <g id="line2d_26"/>
     <g id="text_26">
      <!-- UL26 -->
      <g transform="translate(9.90325 251.938272)scale(0.088 -0.088)">
       <defs>
        <path d="M 33.015625 40.375 
Q 26.375 40.375 22.484375 35.828125 
Q 18.609375 31.296875 18.609375 23.390625 
Q 18.609375 15.53125 22.484375 10.953125 
Q 26.375 6.390625 33.015625 6.390625 
Q 39.65625 6.390625 43.53125 10.953125 
Q 47.40625 15.53125 47.40625 23.390625 
Q 47.40625 31.296875 43.53125 35.828125 
Q 39.65625 40.375 33.015625 40.375 
z
M 52.59375 71.296875 
L 52.59375 62.3125 
Q 48.875 64.0625 45.09375 64.984375 
Q 41.3125 65.921875 37.59375 65.921875 
Q 27.828125 65.921875 22.671875 59.328125 
Q 17.53125 52.734375 16.796875 39.40625 
Q 19.671875 43.65625 24.015625 45.921875 
Q 28.375 48.1875 33.59375 48.1875 
Q 44.578125 48.1875 50.953125 41.515625 
Q 57.328125 34.859375 57.328125 23.390625 
Q 57.328125 12.15625 50.6875 5.359375 
Q 44.046875 -1.421875 33.015625 -1.421875 
Q 20.359375 -1.421875 13.671875 8.265625 
Q 6.984375 17.96875 6.984375 36.375 
Q 6.984375 53.65625 15.1875 63.9375 
Q 23.390625 74.21875 37.203125 74.21875 
Q 40.921875 74.21875 44.703125 73.484375 
Q 48.484375 72.75 52.59375 71.296875 
z
" id="DejaVuSans-54"/>
       </defs>
       <use xlink:href="#DejaVuSans-85"/>
       <use x="73.193359" xlink:href="#DejaVuSans-76"/>
       <use x="128.90625" xlink:href="#DejaVuSans-50"/>
       <use x="192.529297" xlink:href="#DejaVuSans-54"/>
      </g>
     </g>
    </g>
    <g id="ytick_27">
     <g id="line2d_27"/>
     <g id="text_27">
      <!-- UL4 -->
      <g transform="translate(15.50225 261.404741)scale(0.088 -0.088)">
       <use xlink:href="#DejaVuSans-85"/>
       <use x="73.193359" xlink:href="#DejaVuSans-76"/>
       <use x="128.90625" xlink:href="#DejaVuSans-52"/>
      </g>
     </g>
    </g>
    <g id="ytick_28">
     <g id="line2d_28"/>
     <g id="text_28">
      <!-- UL56 -->
      <g transform="translate(9.90325 270.87121)scale(0.088 -0.088)">
       <use xlink:href="#DejaVuSans-85"/>
       <use x="73.193359" xlink:href="#DejaVuSans-76"/>
       <use x="128.90625" xlink:href="#DejaVuSans-53"/>
       <use x="192.529297" xlink:href="#DejaVuSans-54"/>
      </g>
     </g>
    </g>
    <g id="ytick_29">
     <g id="line2d_29"/>
     <g id="text_29">
      <!-- UL6 -->
      <g transform="translate(15.50225 280.337679)scale(0.088 -0.088)">
       <use xlink:href="#DejaVuSans-85"/>
       <use x="73.193359" xlink:href="#DejaVuSans-76"/>
       <use x="128.90625" xlink:href="#DejaVuSans-54"/>
      </g>
     </g>
    </g>
    <g id="ytick_30">
     <g id="line2d_30"/>
     <g id="text_30">
      <!-- UL7 -->
      <g transform="translate(15.50225 289.804148)scale(0.088 -0.088)">
       <defs>
        <path d="M 8.203125 72.90625 
L 55.078125 72.90625 
L 55.078125 68.703125 
L 28.609375 0 
L 18.3125 0 
L 43.21875 64.59375 
L 8.203125 64.59375 
z
" id="DejaVuSans-55"/>
       </defs>
       <use xlink:href="#DejaVuSans-85"/>
       <use x="73.193359" xlink:href="#DejaVuSans-76"/>
       <use x="128.90625" xlink:href="#DejaVuSans-55"/>
      </g>
     </g>
    </g>
    <g id="ytick_31">
     <g id="line2d_31"/>
     <g id="text_31">
      <!-- gH -->
      <g transform="translate(20.2405 299.270617)scale(0.088 -0.088)">
       <defs>
        <path d="M 45.40625 27.984375 
Q 45.40625 37.75 41.375 43.109375 
Q 37.359375 48.484375 30.078125 48.484375 
Q 22.859375 48.484375 18.828125 43.109375 
Q 14.796875 37.75 14.796875 27.984375 
Q 14.796875 18.265625 18.828125 12.890625 
Q 22.859375 7.515625 30.078125 7.515625 
Q 37.359375 7.515625 41.375 12.890625 
Q 45.40625 18.265625 45.40625 27.984375 
z
M 54.390625 6.78125 
Q 54.390625 -7.171875 48.1875 -13.984375 
Q 42 -20.796875 29.203125 -20.796875 
Q 24.46875 -20.796875 20.265625 -20.09375 
Q 16.0625 -19.390625 12.109375 -17.921875 
L 12.109375 -9.1875 
Q 16.0625 -11.328125 19.921875 -12.34375 
Q 23.78125 -13.375 27.78125 -13.375 
Q 36.625 -13.375 41.015625 -8.765625 
Q 45.40625 -4.15625 45.40625 5.171875 
L 45.40625 9.625 
Q 42.625 4.78125 38.28125 2.390625 
Q 33.9375 0 27.875 0 
Q 17.828125 0 11.671875 7.65625 
Q 5.515625 15.328125 5.515625 27.984375 
Q 5.515625 40.671875 11.671875 48.328125 
Q 17.828125 56 27.875 56 
Q 33.9375 56 38.28125 53.609375 
Q 42.625 51.21875 45.40625 46.390625 
L 45.40625 54.6875 
L 54.390625 54.6875 
z
" id="DejaVuSans-103"/>
       </defs>
       <use xlink:href="#DejaVuSans-103"/>
       <use x="63.476562" xlink:href="#DejaVuSans-72"/>
      </g>
     </g>
    </g>
    <g id="ytick_32">
     <g id="line2d_32"/>
     <g id="text_32">
      <!-- gK -->
      <g transform="translate(21.0875 308.737086)scale(0.088 -0.088)">
       <use xlink:href="#DejaVuSans-103"/>
       <use x="63.476562" xlink:href="#DejaVuSans-75"/>
      </g>
     </g>
    </g>
    <g id="ytick_33">
     <g id="line2d_33"/>
     <g id="text_33">
      <!-- NEC2 -->
      <g transform="translate(8.557125 318.203555)scale(0.088 -0.088)">
       <defs>
        <path d="M 9.8125 72.90625 
L 23.09375 72.90625 
L 55.421875 11.921875 
L 55.421875 72.90625 
L 64.984375 72.90625 
L 64.984375 0 
L 51.703125 0 
L 19.390625 60.984375 
L 19.390625 0 
L 9.8125 0 
z
" id="DejaVuSans-78"/>
       </defs>
       <use xlink:href="#DejaVuSans-78"/>
       <use x="74.804688" xlink:href="#DejaVuSans-69"/>
       <use x="137.988281" xlink:href="#DejaVuSans-67"/>
       <use x="207.8125" xlink:href="#DejaVuSans-50"/>
      </g>
     </g>
    </g>
    <g id="ytick_34">
     <g id="line2d_34"/>
     <g id="text_34">
      <!-- SCP -->
      <g transform="translate(15.407375 327.670024)scale(0.088 -0.088)">
       <use xlink:href="#DejaVuSans-83"/>
       <use x="63.476562" xlink:href="#DejaVuSans-67"/>
       <use x="133.300781" xlink:href="#DejaVuSans-80"/>
      </g>
     </g>
    </g>
    <g id="ytick_35">
     <g id="line2d_35"/>
     <g id="text_35">
      <!-- TRX2 -->
      <g transform="translate(9.3285 337.136493)scale(0.088 -0.088)">
       <defs>
        <path d="M 6.296875 72.90625 
L 16.890625 72.90625 
L 35.015625 45.796875 
L 53.21875 72.90625 
L 63.8125 72.90625 
L 40.375 37.890625 
L 65.375 0 
L 54.78125 0 
L 34.28125 31 
L 13.625 0 
L 2.984375 0 
L 29 38.921875 
z
" id="DejaVuSans-88"/>
       </defs>
       <use xlink:href="#DejaVuSans-84"/>
       <use x="61.083984" xlink:href="#DejaVuSans-82"/>
       <use x="130.566406" xlink:href="#DejaVuSans-88"/>
       <use x="199.072266" xlink:href="#DejaVuSans-50"/>
      </g>
     </g>
    </g>
    <g id="ytick_36">
     <g id="line2d_36"/>
     <g id="text_36">
      <!-- UL21 -->
      <g transform="translate(9.90325 346.602962)scale(0.088 -0.088)">
       <use xlink:href="#DejaVuSans-85"/>
       <use x="73.193359" xlink:href="#DejaVuSans-76"/>
       <use x="128.90625" xlink:href="#DejaVuSans-50"/>
       <use x="192.529297" xlink:href="#DejaVuSans-49"/>
      </g>
     </g>
    </g>
    <g id="ytick_37">
     <g id="line2d_37"/>
     <g id="text_37">
      <!-- UL32 -->
      <g transform="translate(9.90325 356.069431)scale(0.088 -0.088)">
       <use xlink:href="#DejaVuSans-85"/>
       <use x="73.193359" xlink:href="#DejaVuSans-76"/>
       <use x="128.90625" xlink:href="#DejaVuSans-51"/>
       <use x="192.529297" xlink:href="#DejaVuSans-50"/>
      </g>
     </g>
    </g>
    <g id="ytick_38">
     <g id="line2d_38"/>
     <g id="text_38">
      <!-- UL41 -->
      <g transform="translate(9.90325 365.5359)scale(0.088 -0.088)">
       <use xlink:href="#DejaVuSans-85"/>
       <use x="73.193359" xlink:href="#DejaVuSans-76"/>
       <use x="128.90625" xlink:href="#DejaVuSans-52"/>
       <use x="192.529297" xlink:href="#DejaVuSans-49"/>
      </g>
     </g>
    </g>
    <g id="ytick_39">
     <g id="line2d_39"/>
     <g id="text_39">
      <!-- UL45 -->
      <g transform="translate(9.90325 375.002369)scale(0.088 -0.088)">
       <use xlink:href="#DejaVuSans-85"/>
       <use x="73.193359" xlink:href="#DejaVuSans-76"/>
       <use x="128.90625" xlink:href="#DejaVuSans-52"/>
       <use x="192.529297" xlink:href="#DejaVuSans-53"/>
      </g>
     </g>
    </g>
    <g id="ytick_40">
     <g id="line2d_40"/>
     <g id="text_40">
      <!-- UL46 -->
      <g transform="translate(9.90325 384.468838)scale(0.088 -0.088)">
       <use xlink:href="#DejaVuSans-85"/>
       <use x="73.193359" xlink:href="#DejaVuSans-76"/>
       <use x="128.90625" xlink:href="#DejaVuSans-52"/>
       <use x="192.529297" xlink:href="#DejaVuSans-54"/>
      </g>
     </g>
    </g>
    <g id="ytick_41">
     <g id="line2d_41"/>
     <g id="text_41">
      <!-- UL48 -->
      <g transform="translate(9.90325 393.935307)scale(0.088 -0.088)">
       <use xlink:href="#DejaVuSans-85"/>
       <use x="73.193359" xlink:href="#DejaVuSans-76"/>
       <use x="128.90625" xlink:href="#DejaVuSans-52"/>
       <use x="192.529297" xlink:href="#DejaVuSans-56"/>
      </g>
     </g>
    </g>
    <g id="ytick_42">
     <g id="line2d_42"/>
     <g id="text_42">
      <!-- UL49 -->
      <g transform="translate(9.90325 403.401776)scale(0.088 -0.088)">
       <use xlink:href="#DejaVuSans-85"/>
       <use x="73.193359" xlink:href="#DejaVuSans-76"/>
       <use x="128.90625" xlink:href="#DejaVuSans-52"/>
       <use x="192.529297" xlink:href="#DejaVuSans-57"/>
      </g>
     </g>
    </g>
    <g id="ytick_43">
     <g id="line2d_43"/>
     <g id="text_43">
      <!-- gB -->
      <g transform="translate(20.82075 412.868245)scale(0.088 -0.088)">
       <use xlink:href="#DejaVuSans-103"/>
       <use x="63.476562" xlink:href="#DejaVuSans-66"/>
      </g>
     </g>
    </g>
    <g id="ytick_44">
     <g id="line2d_44"/>
     <g id="text_44">
      <!-- gD -->
      <g transform="translate(20.082375 422.334714)scale(0.088 -0.088)">
       <use xlink:href="#DejaVuSans-103"/>
       <use x="63.476562" xlink:href="#DejaVuSans-68"/>
      </g>
     </g>
    </g>
    <g id="ytick_45">
     <g id="line2d_45"/>
     <g id="text_45">
      <!-- gE -->
      <g transform="translate(21.297875 431.801183)scale(0.088 -0.088)">
       <use xlink:href="#DejaVuSans-103"/>
       <use x="63.476562" xlink:href="#DejaVuSans-69"/>
      </g>
     </g>
    </g>
    <g id="ytick_46">
     <g id="line2d_46"/>
     <g id="text_46">
      <!-- gI -->
      <g transform="translate(24.262375 441.267652)scale(0.088 -0.088)">
       <use xlink:href="#DejaVuSans-103"/>
       <use x="63.476562" xlink:href="#DejaVuSans-73"/>
      </g>
     </g>
    </g>
    <g id="ytick_47">
     <g id="line2d_47"/>
     <g id="text_47">
      <!-- CVC2 -->
      <g transform="translate(8.5365 450.734121)scale(0.088 -0.088)">
       <use xlink:href="#DejaVuSans-67"/>
       <use x="69.824219" xlink:href="#DejaVuSans-86"/>
       <use x="138.232422" xlink:href="#DejaVuSans-67"/>
       <use x="208.056641" xlink:href="#DejaVuSans-50"/>
      </g>
     </g>
    </g>
    <g id="ytick_48">
     <g id="line2d_48"/>
     <g id="text_48">
      <!-- NEC1 -->
      <g transform="translate(8.557125 460.20059)scale(0.088 -0.088)">
       <use xlink:href="#DejaVuSans-78"/>
       <use x="74.804688" xlink:href="#DejaVuSans-69"/>
       <use x="137.988281" xlink:href="#DejaVuSans-67"/>
       <use x="207.8125" xlink:href="#DejaVuSans-49"/>
      </g>
     </g>
    </g>
    <g id="ytick_49">
     <g id="line2d_49"/>
     <g id="text_49">
      <!-- TRX1 -->
      <g transform="translate(9.3285 469.667059)scale(0.088 -0.088)">
       <use xlink:href="#DejaVuSans-84"/>
       <use x="61.083984" xlink:href="#DejaVuSans-82"/>
       <use x="130.566406" xlink:href="#DejaVuSans-88"/>
       <use x="199.072266" xlink:href="#DejaVuSans-49"/>
      </g>
     </g>
    </g>
    <g id="ytick_50">
     <g id="line2d_50"/>
     <g id="text_50">
      <!-- UL16 -->
      <g transform="translate(9.90325 479.133528)scale(0.088 -0.088)">
       <use xlink:href="#DejaVuSans-85"/>
       <use x="73.193359" xlink:href="#DejaVuSans-76"/>
       <use x="128.90625" xlink:href="#DejaVuSans-49"/>
       <use x="192.529297" xlink:href="#DejaVuSans-54"/>
      </g>
     </g>
    </g>
    <g id="ytick_51">
     <g id="line2d_51"/>
     <g id="text_51">
      <!-- UL3 -->
      <g transform="translate(15.50225 488.599997)scale(0.088 -0.088)">
       <use xlink:href="#DejaVuSans-85"/>
       <use x="73.193359" xlink:href="#DejaVuSans-76"/>
       <use x="128.90625" xlink:href="#DejaVuSans-51"/>
      </g>
     </g>
    </g>
    <g id="ytick_52">
     <g id="line2d_52"/>
     <g id="text_52">
      <!-- UL36 -->
      <g transform="translate(9.90325 498.066466)scale(0.088 -0.088)">
       <use xlink:href="#DejaVuSans-85"/>
       <use x="73.193359" xlink:href="#DejaVuSans-76"/>
       <use x="128.90625" xlink:href="#DejaVuSans-51"/>
       <use x="192.529297" xlink:href="#DejaVuSans-54"/>
      </g>
     </g>
    </g>
    <g id="ytick_53">
     <g id="line2d_53"/>
     <g id="text_53">
      <!-- UL37 -->
      <g transform="translate(9.90325 507.532935)scale(0.088 -0.088)">
       <use xlink:href="#DejaVuSans-85"/>
       <use x="73.193359" xlink:href="#DejaVuSans-76"/>
       <use x="128.90625" xlink:href="#DejaVuSans-51"/>
       <use x="192.529297" xlink:href="#DejaVuSans-55"/>
      </g>
     </g>
    </g>
    <g id="ytick_54">
     <g id="line2d_54"/>
     <g id="text_54">
      <!-- UL47 -->
      <g transform="translate(9.90325 516.999404)scale(0.088 -0.088)">
       <use xlink:href="#DejaVuSans-85"/>
       <use x="73.193359" xlink:href="#DejaVuSans-76"/>
       <use x="128.90625" xlink:href="#DejaVuSans-52"/>
       <use x="192.529297" xlink:href="#DejaVuSans-55"/>
      </g>
     </g>
    </g>
    <g id="ytick_55">
     <g id="line2d_55"/>
     <g id="text_55">
      <!-- UL51 -->
      <g transform="translate(9.90325 526.465873)scale(0.088 -0.088)">
       <use xlink:href="#DejaVuSans-85"/>
       <use x="73.193359" xlink:href="#DejaVuSans-76"/>
       <use x="128.90625" xlink:href="#DejaVuSans-53"/>
       <use x="192.529297" xlink:href="#DejaVuSans-49"/>
      </g>
     </g>
    </g>
    <g id="ytick_56">
     <g id="line2d_56"/>
     <g id="text_56">
      <!-- US11 -->
      <g transform="translate(9.219875 535.932342)scale(0.088 -0.088)">
       <use xlink:href="#DejaVuSans-85"/>
       <use x="73.193359" xlink:href="#DejaVuSans-83"/>
       <use x="136.669922" xlink:href="#DejaVuSans-49"/>
       <use x="200.292969" xlink:href="#DejaVuSans-49"/>
      </g>
     </g>
    </g>
    <g id="ytick_57">
     <g id="line2d_57"/>
     <g id="text_57">
      <!-- US2 -->
      <g transform="translate(14.818875 545.398811)scale(0.088 -0.088)">
       <use xlink:href="#DejaVuSans-85"/>
       <use x="73.193359" xlink:href="#DejaVuSans-83"/>
       <use x="136.669922" xlink:href="#DejaVuSans-50"/>
      </g>
     </g>
    </g>
    <g id="ytick_58">
     <g id="line2d_58"/>
     <g id="text_58">
      <!-- gC -->
      <g transform="translate(20.7135 554.86528)scale(0.088 -0.088)">
       <use xlink:href="#DejaVuSans-103"/>
       <use x="63.476562" xlink:href="#DejaVuSans-67"/>
      </g>
     </g>
    </g>
    <g id="ytick_59">
     <g id="line2d_59"/>
     <g id="text_59">
      <!-- gM -->
      <g transform="translate(19.265625 564.331749)scale(0.088 -0.088)">
       <use xlink:href="#DejaVuSans-103"/>
       <use x="63.476562" xlink:href="#DejaVuSans-77"/>
      </g>
     </g>
    </g>
   </g>
  </g>
 </g>
 <defs>
  <clipPath id="pff7c9e4217">
   <rect height="558.521671" width="44.114" x="35.945" y="7.2"/>
  </clipPath>
 </defs>
</svg>
